<?xml version="1.0" encoding="UTF-8" standalone="no"?>
<!-- Created with Inkscape (http://www.inkscape.org/) -->

<svg
   width="2000"
   height="1023.9999"
   viewBox="0 0 529.16667 270.93331"
   version="1.1"
   id="svg5"
   xml:space="preserve"
   xmlns:xlink="http://www.w3.org/1999/xlink"
   xmlns="http://www.w3.org/2000/svg"
   xmlns:svg="http://www.w3.org/2000/svg"><defs
     id="defs2"><linearGradient
       id="linearGradient93-1"><stop
         style="stop-color:#260099;stop-opacity:0.22099282;"
         offset="0"
         id="stop92" /><stop
         style="stop-color:#00b286;stop-opacity:0.40000001;"
         offset="0.63057113"
         id="stop109" /><stop
         style="stop-color:#009933;stop-opacity:0.40000001;"
         offset="1"
         id="stop93" /></linearGradient><style
       id="style6568">.cls-1{fill:none;}.cls-2{clip-path:url(#clip-path);}</style><style
       id="style6568-5">.cls-1{fill:none;}.cls-2{clip-path:url(#clip-path);}</style><style
       id="style6568-9">.cls-1{fill:none;}.cls-2{clip-path:url(#clip-path);}</style><style
       id="style22571">.cls-1{fill:#84d0f7;}.cls-2{fill:#aa392d;}.cls-3{fill:#7c211a;}.cls-4{fill:#e59973;}.cls-5{fill:#2d2d2d;}.cls-6{opacity:0.2;}.cls-7{opacity:0.3;}</style><style
       id="style23309">
      .cls-1 {
        fill: none;
      }
    </style><style
       id="style6568-7">.cls-1{fill:none;}.cls-2{clip-path:url(#clip-path);}</style><style
       id="style6568-5-5">.cls-1{fill:none;}.cls-2{clip-path:url(#clip-path);}</style><style
       id="style6568-9-3">.cls-1{fill:none;}.cls-2{clip-path:url(#clip-path);}</style><style
       id="style22571-5">.cls-1{fill:#84d0f7;}.cls-2{fill:#aa392d;}.cls-3{fill:#7c211a;}.cls-4{fill:#e59973;}.cls-5{fill:#2d2d2d;}.cls-6{opacity:0.2;}.cls-7{opacity:0.3;}</style><style
       id="style23309-6">
      .cls-1 {
        fill: none;
      }
    </style><style
       id="style1-9">
      .cls-1 {
        fill: none;
      }
    </style><radialGradient
       xlink:href="#radialGradient96-3-0-6"
       id="radialGradient165-9-3"
       gradientUnits="userSpaceOnUse"
       gradientTransform="matrix(0.8686162,-0.02849865,0.02875716,0.86781244,12.754652,-31.042556)"
       cx="80.127373"
       cy="86.519325"
       fx="80.127373"
       fy="86.519325"
       r="76.183998" /><radialGradient
       id="radialGradient96-3-0-6"
       cx="77.121002"
       cy="66.694"
       r="76.183998"
       gradientTransform="rotate(-3.714,-608.323,2.714)"
       gradientUnits="userSpaceOnUse"><stop
         offset="0.1557723"
         stop-color="#ce93d8"
         id="stop94-6-9-75"
         style="stop-color:#00e526;stop-opacity:1;" /><stop
         offset="0.34076992"
         stop-color="#ce93d8"
         id="stop120-1-3"
         style="stop-color:#00cc55;stop-opacity:1;" /><stop
         offset="0.52160043"
         stop-color="#ce93d8"
         id="stop95-7-7-5"
         style="stop-color:#0099e5;stop-opacity:1;" /><stop
         offset="1"
         stop-color="#ab47bc"
         id="stop96-5-7-6"
         style="stop-color:#590099;stop-opacity:1;" /></radialGradient><filter
       style="color-interpolation-filters:sRGB"
       id="filter16-2-7-7"
       x="-0.22739892"
       y="-0.18443128"
       width="1.4547978"
       height="1.3688626"><feFlood
         result="flood"
         in="SourceGraphic"
         flood-opacity="0.639216"
         flood-color="rgb(24,16,65)"
         id="feFlood15-9-7-0" /><feGaussianBlur
         result="blur"
         in="SourceGraphic"
         stdDeviation="4.000000"
         id="feGaussianBlur15-1-6-9" /><feOffset
         result="offset"
         in="blur"
         dx="0.000000"
         dy="0.000000"
         id="feOffset15-2-7-3" /><feComposite
         result="comp1"
         operator="in"
         in="flood"
         in2="offset"
         id="feComposite15-7-3-6" /><feComposite
         result="comp2"
         operator="over"
         in="SourceGraphic"
         in2="comp1"
         id="feComposite16-0-6-0" /></filter><linearGradient
       xlink:href="#linearGradient93-1"
       id="linearGradient53"
       gradientUnits="userSpaceOnUse"
       x1="1530.6603"
       y1="453.00351"
       x2="1562.2051"
       y2="433.32632" /></defs><g
     id="layer1"
     transform="translate(903.9848,-1469.5754)"><rect
       style="font-weight:900;font-size:53.7023px;font-family:Rubik;-inkscape-font-specification:'Rubik Heavy';letter-spacing:-0.719445px;fill:#000000;fill-opacity:1;stroke-width:28.9944;stroke-dasharray:none"
       id="rect179-4"
       width="985.56226"
       height="423.39264"
       x="-936.17645"
       y="1358.2535"
       rx="0"
       ry="0" /><text
       xml:space="preserve"
       style="font-style:normal;font-variant:normal;font-weight:normal;font-stretch:normal;font-size:29.0975px;font-family:'Single Flashing';-inkscape-font-specification:'Single Flashing';text-align:center;letter-spacing:0px;writing-mode:lr-tb;direction:ltr;text-anchor:middle;white-space:pre;inline-size:368.665;display:inline;fill:#ffffff;stroke-width:0;paint-order:markers fill stroke"
       x="1532.61"
       y="667.09094"
       id="text1-2"
       transform="matrix(0.87588427,0,0,0.93021701,-1979.9436,989.12638)"><tspan
         x="1532.61"
         y="667.09094"
         id="tspan8"><tspan
   style="font-style:italic;font-weight:bold;font-family:'IBM Plex Mono';-inkscape-font-specification:'IBM Plex Mono';fill:#1a8cff"
   id="tspan4">Agentic</tspan><tspan
   style="font-family:'IBM Plex Mono';-inkscape-font-specification:'IBM Plex Mono';fill:#00aaff"
   id="tspan5"> </tspan><tspan
   style="font-family:'IBM Plex Mono';-inkscape-font-specification:'IBM Plex Mono';text-align:end;text-anchor:end"
   id="tspan6">&amp; </tspan><tspan
   style="font-style:italic;font-weight:bold;font-family:'IBM Plex Mono';-inkscape-font-specification:'IBM Plex Mono';fill:#07f857"
   id="tspan7">Onchain</tspan><tspan
   y="667.09094"
   id="tspan9"> </tspan></tspan><tspan
         x="1532.61"
         y="704.05156"
         id="tspan16"><tspan
           style="font-style:italic;font-weight:bold;font-family:'IBM Plex Mono';-inkscape-font-specification:'IBM Plex Mono'"
           id="tspan12">Commerce </tspan><tspan
           style="font-style:italic;font-family:'IBM Plex Mono';-inkscape-font-specification:'IBM Plex Mono Italic'"
           id="tspan15">Platform</tspan></tspan></text><text
       xml:space="preserve"
       style="font-style:normal;font-variant:normal;font-weight:bold;font-stretch:normal;font-size:21.0077px;font-family:'JetBrains Mono';-inkscape-font-specification:'JetBrains Mono Bold';text-align:center;letter-spacing:0px;writing-mode:lr-tb;direction:ltr;text-anchor:middle;fill:#4281ff;fill-opacity:1;stroke:#4281ff;stroke-width:0;stroke-opacity:1;paint-order:markers fill stroke"
       x="-625.06036"
       y="1687.1393"
       id="text23-8"><tspan
         id="tspan23-7"
         style="fill:#4433ff;fill-opacity:1;stroke-width:0"
         x="-625.06036"
         y="1687.1393">wanderia.xyz</tspan></text><g
       style="opacity:0.653792;fill:#5f00e5;fill-opacity:1"
       id="g284-8-6-9"
       transform="matrix(0.99995289,0.99995289,-0.99995289,0.99995289,-720.71579,1665.4162)"><path
         d="M 7.05025,1.53553 C 8.03344,0.552348 9.36692,0 10.7574,0 13.6528,0 16,2.34721 16,5.24264 16,6.63308 15.4477,7.96656 14.4645,8.94975 L 12.4142,11 11,9.58579 13.0503,7.53553 C 13.6584,6.92742 14,6.10264 14,5.24264 14,3.45178 12.5482,2 10.7574,2 9.89736,2 9.07258,2.34163 8.46447,2.94975 L 6.41421,5 5,3.58579 Z"
         fill="#000000"
         id="path1-6-5-1-2"
         style="fill:#5f00e5;fill-opacity:1" /><path
         d="M 7.53553,13.0503 9.58579,11 11,12.4142 8.94975,14.4645 C 7.96656,15.4477 6.63308,16 5.24264,16 2.34721,16 0,13.6528 0,10.7574 0,9.36693 0.552347,8.03344 1.53553,7.05025 L 3.58579,5 5,6.41421 2.94975,8.46447 C 2.34163,9.07258 2,9.89736 2,10.7574 2,12.5482 3.45178,14 5.24264,14 c 0.86,0 1.68478,-0.3416 2.29289,-0.9497 z"
         fill="#000000"
         id="path2-9-5-0"
         style="fill:#5f00e5;fill-opacity:1" /><path
         d="M 5.70711,11.7071 11.7071,5.70711 10.2929,4.29289 4.29289,10.2929 Z"
         fill="#000000"
         id="path3-75-9-2"
         style="fill:#5f00e5;fill-opacity:1" /></g><g
       id="g53"
       transform="matrix(0.41597459,0,0,0.41597459,-514.38832,853.19369)"><g
         id="g145-6-3"
         transform="matrix(2.0231825,0,0,2.0231825,-1344.4116,-1053.7982)"
         style="fill:#ffffff;fill-opacity:1"><path
           id="path145-3-7"
           style="font-size:45.861px;font-family:'Neue Leights';-inkscape-font-specification:'Neue Leights';letter-spacing:0px;fill:#ffffff;fill-opacity:1;stroke-width:0.264583"
           d="m 464.98539,1322.9006 c -0.21366,-2e-4 -0.38693,0.173 -0.3867,0.3867 v 32.1016 c -2.3e-4,0.2137 0.17304,0.3869 0.3867,0.3867 h 8.4844 c 0.16747,-2e-4 0.31575,-0.1082 0.3672,-0.2676 l 3.7636,-11.625 3.8477,11.627 c 0.0522,0.1586 0.20027,0.2657 0.3672,0.2656 h 8.4394 c 0.21366,2e-4 0.38693,-0.173 0.3867,-0.3867 v -32.1016 c 2.3e-4,-0.2137 -0.17304,-0.3869 -0.3867,-0.3867 h -4.4941 c -0.21366,-2e-4 -0.38693,0.173 -0.3867,0.3867 v 23.5059 h -1.3067 l -4.6816,-14.2715 c -0.0521,-0.1586 -0.20027,-0.2657 -0.3672,-0.2656 h -2.7969 c -0.16693,-10e-5 -0.31505,0.107 -0.3672,0.2656 l -4.6836,14.2715 h -1.3515 v -23.5059 c 2.3e-4,-0.2137 -0.17304,-0.3869 -0.3867,-0.3867 z m 93.793,0 c -0.2137,-3e-4 -0.38703,0.173 -0.3868,0.3867 v 11.252 c -0.4335,-0.6692 -0.988,-1.2509 -1.6894,-1.7129 v 0 c -1.1988,-0.8089 -2.6293,-1.2109 -4.25,-1.2109 -1.3993,0 -2.6867,0.3042 -3.8438,0.9141 -1.1248,0.5784 -2.0906,1.4172 -2.8867,2.5 -0.7954,1.0816 -1.4111,2.3793 -1.8496,3.8828 -4e-5,0 -4e-5,0.01 0,0.01 -0.408,1.5061 -0.6094,3.1757 -0.6094,5.0078 0,1.8322 0.2014,3.5017 0.6094,5.0078 -4e-5,0 -4e-5,0.01 0,0.01 0.4385,1.5033 1.0542,2.8011 1.8496,3.8828 0.7951,1.0813 1.758,1.9325 2.8789,2.541 0.004,0 0.008,0.01 0.012,0.01 1.1568,0.5783 2.4418,0.8672 3.8399,0.8672 1.6199,0 3.1145,-0.3852 4.457,-1.1524 0.003,0 0.007,0 0.01,0 0.8364,-0.4978 1.4786,-1.1408 1.957,-1.8867 0.071,0.73 0.2821,1.374 0.7363,1.8281 0.003,0 0.007,0.01 0.01,0.01 0.5429,0.5067 1.2971,0.7461 2.1895,0.7461 h 5.5039 c 0.21366,2e-4 0.38693,-0.173 0.3867,-0.3867 v -4.5391 c 4.8e-4,-0.2207 -0.1838,-0.397 -0.4043,-0.3867 l -3.7676,0.1641 0.09,-27.3379 c 10e-4,-0.2144 -0.17225,-0.3889 -0.3867,-0.3887 z m -5.3204,13.9805 c 1.648,0 2.7873,0.5705 3.5762,1.7539 0.003,0 0.007,0.01 0.01,0.01 0.8192,1.1581 1.2578,2.9132 1.2578,5.2812 0,2.3994 -0.4402,4.1874 -1.2617,5.377 -0.7871,1.1526 -1.9296,1.7109 -3.5801,1.7109 -1.6486,0 -2.8277,-0.5598 -3.6757,-1.7168 v 0 c -0.8481,-1.1894 -1.3008,-2.9716 -1.3008,-5.3672 0,-2.3977 0.4544,-4.1635 1.3008,-5.3203 0.8484,-1.1594 2.0278,-1.7226 3.6777,-1.7226 z m 66.34951,-12.0547 c -0.6452,0 -1.1987,0.1674 -1.5801,0.5488 -0.3814,0.3814 -0.5488,0.9349 -0.5488,1.5801 v 1.2383 c 0,0.6452 0.1674,1.1986 0.5488,1.58 0.3814,0.3814 0.9349,0.5489 1.5801,0.5489 h 1.2383 c 0.6316,0 1.1761,-0.1703 1.5488,-0.5528 0.3727,-0.3825 0.5352,-0.9325 0.5352,-1.5761 v -1.2383 c 0,-0.6436 -0.1625,-1.1937 -0.5352,-1.5762 -0.3727,-0.3825 -0.9172,-0.5527 -1.5488,-0.5527 z m -92.95691,8.2246 c -0.7035,0.4482 -1.3127,0.9963 -1.8261,1.6367 -0.2134,0.2534 -0.3909,0.5295 -0.5606,0.8106 l -0.3184,-3.0782 c -0.0199,-0.1975 -0.1862,-0.3478 -0.3847,-0.3476 h -3.9903 c -0.21366,-2e-4 -0.38693,0.173 -0.3867,0.3867 v 22.9297 c -2.3e-4,0.2137 0.17304,0.3869 0.3867,0.3867 h 4.4493 c 0.21366,2e-4 0.38693,-0.173 0.3867,-0.3867 v -12.7481 c 0,-1.9421 0.4525,-3.3345 1.3047,-4.2422 0.8521,-0.9076 2.1375,-1.3789 3.9492,-1.3789 1.78,0 3.0412,0.47 3.8789,1.377 0.8377,0.907 1.2832,2.301 1.2832,4.2441 v 12.7481 c -2.3e-4,0.2137 0.17304,0.3869 0.3867,0.3867 h 4.4024 c 0.21366,2e-4 0.38693,-0.173 0.3867,-0.3867 v -14.3086 c 0,-3.0236 -0.7195,-5.3779 -2.207,-6.9981 -3.01098,-3.4124 -8.34368,-2.8559 -11.1407,-1.0312 z m 52.7891,-1.4375 c -3.3235,0 -5.9549,1.0884 -7.7734,3.2578 -1.8184,2.1387 -2.7032,5.1736 -2.7032,9.0527 0,3.8805 0.8856,6.9312 2.7032,9.0996 1.8194,2.1386 4.4493,3.209 7.7715,3.209 2.9167,0 5.2683,-0.8427 6.9687,-2.543 1.6988,-1.731 2.6153,-4.1776 2.7715,-7.2696 0.0114,-0.2212 -0.16517,-0.4067 -0.3867,-0.4062 h -4.4942 c -0.20549,6e-4 -0.37455,0.162 -0.3847,0.3672 -0.089,1.6707 -0.5228,2.8674 -1.25,3.6425 -0.7273,0.7752 -1.7706,1.1719 -3.2266,1.1719 -1.7443,0 -2.9863,-0.5793 -3.8633,-1.7676 -0.8244,-1.1168 -1.2634,-2.8194 -1.3437,-5.0253 h 14.5625 c 0.2137,2e-4 0.38698,-0.1731 0.3867,-0.3868 v -2.5683 c 1.7e-4,-0.01 1.7e-4,-0.013 0,-0.02 -0.1562,-3.0908 -1.0716,-5.5216 -2.7715,-7.2226 -1.6996,-1.7316 -4.0525,-2.5918 -6.9707,-2.5918 z m 0,5.0391 c 1.2221,0 2.1567,0.2888 2.8555,0.8437 0.5903,0.4688 0.9922,1.1919 1.2714,2.0977 h -8.6054 c 0.8548,-1.974 2.2678,-2.9414 4.4785,-2.9414 z m -82.3613,-4.5801 c -0.2137,-3e-4 -0.38703,0.173 -0.3868,0.3867 v 4.4473 c -2.3e-4,0.2137 0.1731,0.387 0.3868,0.3867 h 9.7031 v 2.3457 c -2.1791,0.4968 -4.0844,1.0065 -5.6113,1.5351 -1.5795,0.5269 -2.8744,1.1184 -3.8907,1.7852 -1.015,0.666 -1.7933,1.4223 -2.3183,2.2754 -0.003,0 -0.007,0.01 -0.01,0.01 -0.4904,0.8501 -0.7811,1.8404 -0.8769,2.9571 -0.095,1.171 -7e-4,2.2595 0.289,3.2578 -1.1e-4,0.01 -1.1e-4,0.011 0,0.016 0.3214,0.9638 0.8104,1.8081 1.459,2.5215 0.6504,0.7155 1.4481,1.2694 2.3828,1.6562 0.003,0 0.007,0 0.01,0 0.9666,0.3866 2.0262,0.5781 3.1699,0.5781 1.5508,0 2.9056,-0.3188 4.043,-0.9688 0.803,-0.4685 1.4024,-1.1153 1.9043,-1.8379 0.1003,0.6263 0.2977,1.1903 0.7012,1.5937 0.003,0 0.007,0.01 0.01,0.01 0.5429,0.5067 1.2969,0.7461 2.1895,0.7461 h 5.4121 c 0.21366,2e-4 0.38693,-0.173 0.3867,-0.3867 v -4.586 c 4.8e-4,-0.2207 -0.1838,-0.397 -0.4043,-0.3867 l -3.5859,0.1641 v -14.3145 c 0,-1.3209 -0.3657,-2.3905 -1.127,-3.1191 -0.7286,-0.7267 -1.7778,-1.0742 -3.0664,-1.0742 z m 9.7031,12.5547 v 1.6347 c 0,1.6773 -0.4206,2.9471 -1.2344,3.8731 -0.8124,0.9245 -1.9029,1.3828 -3.3789,1.3828 -1.03,0 -1.7734,-0.2527 -2.2988,-0.7207 -0.4897,-0.4934 -0.6856,-1.1192 -0.5742,-2.0098 0.055,-0.4689 0.1911,-0.8451 0.3964,-1.1543 0.2276,-0.3278 0.6194,-0.6631 1.1914,-0.9785 0.6134,-0.3211 1.4342,-0.6527 2.459,-0.9844 0.003,0 0.007,0 0.01,0 0.8981,-0.3169 2.1027,-0.6686 3.4297,-1.0351 z m 84.9023,-12.5547 c -0.21366,-2e-4 -0.38693,0.173 -0.3867,0.3867 v 4.5859 c -3.8e-4,0.2191 0.18141,0.3947 0.4004,0.3867 l 4.7363,-0.1699 v 13.293 h -4.7949 c -0.21366,-2e-4 -0.38693,0.173 -0.3867,0.3867 v 4.4473 c -2.3e-4,0.2137 0.17304,0.3869 0.3867,0.3867 h 14.7656 c 0.2137,3e-4 0.38703,-0.173 0.3868,-0.3867 v -4.4473 c 2.3e-4,-0.2137 -0.1731,-0.387 -0.3868,-0.3867 h -4.7949 v -8.832 c 0,-1.4935 0.3744,-2.5521 1.0801,-3.2578 0.7396,-0.7397 1.8117,-1.125 3.3027,-1.125 h 3.2559 c 0.2137,2e-4 0.38698,-0.1731 0.3867,-0.3868 v -4.4941 c 2.3e-4,-0.2137 -0.17304,-0.3869 -0.3867,-0.3867 h -4.2188 c -1.7432,0 -3.207,0.7052 -4.3359,2.0019 v -1.6152 c 2.3e-4,-0.2137 -0.17304,-0.3869 -0.3867,-0.3867 z m 22.14641,0 c -0.2137,-3e-4 -0.38703,0.173 -0.3868,0.3867 v 4.5859 c -4.3e-4,0.22 0.18263,0.3959 0.4024,0.3867 l 4.2754,-0.1679 v 13.291 h -4.8418 c -0.21366,-2e-4 -0.38693,0.173 -0.3867,0.3867 v 4.4473 c -2.3e-4,0.2137 0.17304,0.3869 0.3867,0.3867 h 14.8125 c 0.21366,2e-4 0.38693,-0.173 0.3867,-0.3867 v -4.4473 c 2.3e-4,-0.2137 -0.17304,-0.3869 -0.3867,-0.3867 h -4.7949 v -14.2891 c 0,-1.3331 -0.339,-2.4034 -1.0645,-3.1289 -0.7255,-0.7255 -1.7957,-1.0644 -3.1289,-1.0644 z m 19.05549,0 c -0.21366,-2e-4 -0.38693,0.173 -0.3867,0.3867 v 4.4473 c -2.3e-4,0.2137 0.17304,0.3869 0.3867,0.3867 h 9.7031 v 2.3457 c -2.179,0.4968 -4.0843,1.0065 -5.6113,1.5351 -1.5795,0.5269 -2.8727,1.1185 -3.8887,1.7852 -1.0148,0.6659 -1.795,1.4219 -2.3203,2.2754 -0.003,0 -0.007,0.01 -0.01,0.01 -0.4907,0.8505 -0.7794,1.8408 -0.875,2.9571 -0.095,1.171 -7e-4,2.2595 0.289,3.2578 -1.1e-4,0.01 -1.1e-4,0.011 0,0.016 0.3211,0.9634 0.8082,1.8078 1.4571,2.5215 0.6507,0.7158 1.4503,1.2695 2.3847,1.6562 0.003,0 0.007,0 0.01,0 0.9664,0.3866 2.0243,0.5781 3.1679,0.5781 1.5508,0 2.9074,-0.3188 4.045,-0.9688 0.8029,-0.4684 1.4024,-1.1154 1.9043,-1.8379 0.1,0.6261 0.2954,1.19 0.6992,1.5937 0.003,0 0.007,0.01 0.01,0.01 0.5429,0.5067 1.297,0.7461 2.1894,0.7461 h 5.4121 c 0.21366,2e-4 0.38693,-0.173 0.3867,-0.3867 v -4.586 c 4.8e-4,-0.2207 -0.1838,-0.397 -0.4043,-0.3867 l -3.5859,0.1641 v -14.3145 c 0,-1.3205 -0.3635,-2.3903 -1.125,-3.1191 -0.7289,-0.7269 -1.7796,-1.0742 -3.0684,-1.0742 z m 9.7031,12.5547 v 1.6347 c 0,1.6773 -0.4207,2.9471 -1.2344,3.8731 -0.8127,0.9248 -1.901,1.3828 -3.3769,1.3828 -1.0301,0 -1.7734,-0.2527 -2.2988,-0.7207 -0.49,-0.4937 -0.6876,-1.1197 -0.5762,-2.0098 0.055,-0.4688 0.1911,-0.845 0.3965,-1.1543 0.2274,-0.3277 0.6194,-0.6631 1.1914,-0.9785 0.613,-0.3209 1.4358,-0.6527 2.4609,-0.9844 0.003,0 0.007,0 0.01,0 0.8981,-0.3169 2.1013,-0.6687 3.4277,-1.0351 z" /></g><g
         id="g165-4-5"
         transform="matrix(2.1464537,0,0,2.1464537,-1049.221,404.45718)"><g
           id="g158-8-9"
           transform="matrix(0.97562643,-0.26230056,0.26141832,0.978919,-665.04287,785.4812)"><g
             id="g157-1-2"
             transform="matrix(0.61903904,0,0,0.61903904,892.29577,9.0735992)"><radialGradient
               id="radialGradient147-2-2"
               cx="77.121002"
               cy="66.694"
               r="76.183998"
               gradientTransform="rotate(-3.714,-608.323,2.714)"
               gradientUnits="userSpaceOnUse"><stop
                 offset=".104"
                 stop-color="#ce93d8"
                 id="stop146-9-8" /><stop
                 offset="1"
                 stop-color="#ab47bc"
                 id="stop147-3-9" /></radialGradient><circle
               fill="url(#IconifyId17ecdb2904d178eab7492)"
               id="circle147-9-7"
               style="fill:url(#radialGradient165-9-3)"
               r="48.759998"
               cy="52.759998"
               cx="64" /><radialGradient
               id="radialGradient149-0-3"
               cx="53.348999"
               cy="46.134998"
               r="69.389"
               gradientUnits="userSpaceOnUse"
               gradientTransform="translate(-101.89795,26.81525)"><stop
                 offset=".28"
                 stop-color="#81d4fa"
                 stop-opacity="0"
                 id="stop148-8-6" /><stop
                 offset=".964"
                 stop-color="#81d4fa"
                 stop-opacity=".9"
                 id="stop149-8-1" /></radialGradient><linearGradient
               id="linearGradient46"
               gradientUnits="userSpaceOnUse"
               x1="74.690002"
               y1="10.651"
               x2="35.942001"
               y2="111.007"><stop
                 offset="0"
                 stop-color="#673ab7"
                 id="stop150-5-2" /><stop
                 offset=".937"
                 stop-color="#673ab7"
                 stop-opacity="0"
                 id="stop151-0-9" /></linearGradient><linearGradient
               id="linearGradient47"
               gradientUnits="userSpaceOnUse"
               x1="80.877998"
               y1="24.934"
               x2="80.877998"
               y2="108.077"><stop
                 offset=".235"
                 stop-color="#1d44b3"
                 id="stop152-9-3" /><stop
                 offset=".884"
                 stop-color="#2044b3"
                 stop-opacity=".074"
                 id="stop153-6-1" /><stop
                 offset=".936"
                 stop-color="#2144b3"
                 stop-opacity="0"
                 id="stop154-3-9" /></linearGradient><linearGradient
               id="linearGradient48"
               gradientUnits="userSpaceOnUse"
               x1="-2575.355"
               y1="437.51901"
               x2="-2575.355"
               y2="471.20599"
               gradientTransform="matrix(-0.96584899,0.25910563,0.25910563,0.96584899,-2567.8605,261.19412)"><stop
                 offset=".227"
                 stop-color="#ffffff"
                 id="stop155-8-4" /><stop
                 offset="1"
                 stop-color="#ffffff"
                 stop-opacity="0"
                 id="stop156-5-7" /></linearGradient><g
               id="g156-6-8"
               transform="translate(0.12931997,-1.6201171)" /><ellipse
               style="opacity:0.343906;fill:#ffffff;fill-opacity:0.160967;stroke-width:0.280305"
               id="ellipse156-1-4"
               transform="rotate(15)"
               ry="0.66424036"
               rx="0.44432136"
               cy="46.135433"
               cx="162.80376" /><ellipse
               style="opacity:1;fill:#ff0101;fill-opacity:1;stroke-width:0.280305"
               id="ellipse157-1-5"
               cx="144.95972"
               cy="43.136368"
               transform="rotate(14.999999)"
               rx="0.44432139"
               ry="0.22141346" /></g></g><g
           id="g162-5-0"
           transform="matrix(0.73300057,0,0,0.72205995,-868.71224,251.83764)"><path
             d="m 1516.6762,430.67981 c 4.2216,0.36142 12.8691,3.51225 6.5741,11.59319 -4.1379,5.31007 -9.3078,10.24946 -11.1396,14.52161 -5.2909,12.3531 7.9688,17.39441 12.0881,18.68255 3.5706,1.12133 10.4514,3.62345 12.3855,6.82061 7.4667,12.3253 -14.6358,15.61306 -14.6358,15.61306 0,0 15.181,4.98323 30.1394,-3.15832 5.2072,-3.51225 9.5186,-11.65776 5.0367,-19.01588 -2.1758,-3.56784 -8.1733,-6.78353 -9.6425,-7.93266 -9.3546,-7.30498 1.8823,-11.68799 8.5245,-13.12746 6.8929,-1.84075 13.0784,-9.51759 11.0754,-19.36861 -2.003,-9.85102 -19.2391,-22.19863 -37.3754,-20.42641 -12.8835,1.10448 -22.0195,7.9449 -26.4232,12.80107 -10.7379,11.11771 -11.353,24.36972 -11.353,24.36972 0,0 9.4684,-22.69767 24.7458,-21.37247 z"
             opacity="0.7"
             fill="url(#IconifyId17ecdb2904d178eab7494)"
             id="path158-9-3"
             style="opacity:1;fill:url(#linearGradient53);stroke-width:0.928279" /><g
             id="g161-8-6"
             transform="matrix(0.90886742,0,0,0.90886742,1408.2239,621.43378)"><linearGradient
               id="linearGradient51"
               gradientUnits="userSpaceOnUse"
               x1="85.871002"
               y1="28.959999"
               x2="85.871002"
               y2="52.387001"><stop
                 offset=".261"
                 stop-color="#ffffff"
                 id="stop158-4-1" /><stop
                 offset="1"
                 stop-color="#ffffff"
                 stop-opacity="0"
                 id="stop159-8-0" /></linearGradient><linearGradient
               id="linearGradient52"
               gradientUnits="userSpaceOnUse"
               x1="76.221001"
               y1="58.160999"
               x2="76.221001"
               y2="85.231003"><stop
                 offset="0"
                 stop-color="#ffffff"
                 id="stop160-1-6" /><stop
                 offset="1"
                 stop-color="#ffffff"
                 stop-opacity="0"
                 id="stop161-0-3" /></linearGradient></g></g><g
           style="fill:#ffffff;fill-opacity:1;filter:url(#filter16-2-7-7)"
           id="g164-3-2"
           transform="matrix(-0.76853482,0,0,0.77112849,289.83569,559.5767)"><path
             style="fill:#ffffff;fill-opacity:1;stroke-width:0.973643"
             d="m 34.91075,54.539673 c 0.593338,0 1.026901,-0.433563 1.140915,-1.049685 1.620238,-12.50527 3.377371,-14.399297 15.745651,-15.768531 0.639001,-0.06845 1.072564,-0.547674 1.072564,-1.140914 0,-0.593338 -0.433563,-1.049782 -1.072564,-1.141012 C 39.429036,34.070297 37.671903,32.17627 36.051665,19.671097 35.937651,19.054976 35.504088,18.644196 34.91075,18.644196 c -0.593338,0 -1.026901,0.41078 -1.118131,1.026901 -1.620239,12.505173 -3.400155,14.3992 -15.745748,15.768434 -0.661688,0.09123 -1.095251,0.547674 -1.095251,1.141012 0,0.59324 0.433563,1.072467 1.095251,1.140914 12.322713,1.620239 14.034182,3.286141 15.745748,15.768531 0.09123,0.616122 0.524793,1.049685 1.118131,1.049685 z"
             id="path162-0-0" /><path
             style="fill:#ffffff;fill-opacity:1;stroke-width:0.973643"
             d="m 19.438985,29.278223 c 0.433563,0 0.730232,-0.273886 0.775798,-0.684568 0.82156,-6.092958 1.026901,-6.092958 7.325201,-7.30232 0.410779,-0.06854 0.707351,-0.342332 0.707351,-0.775896 0,-0.410779 -0.296572,-0.707448 -0.707351,-0.775895 -6.2983,-0.867126 -6.526522,-1.072565 -7.325201,-7.279537 -0.04557,-0.410682 -0.342235,-0.707351 -0.775798,-0.707351 -0.41078,0 -0.707449,0.296669 -0.753113,0.730232 -0.753015,6.115644 -1.072564,6.092861 -7.325102,7.256656 -0.41078,0.09133 -0.707449,0.365116 -0.707449,0.775895 0,0.456347 0.296669,0.707352 0.798679,0.775896 6.206972,1.004021 6.480857,1.163795 7.233872,7.256656 0.04566,0.456346 0.342333,0.730232 0.753113,0.730232 z"
             id="path163-4-6" /><path
             style="fill:#ffffff;fill-opacity:1;stroke-width:0.973643"
             d="m 30.483695,13.578236 c 0.273788,0 0.410779,-0.159775 0.479227,-0.41078 0.707351,-3.8109345 0.661784,-3.9021648 4.632396,-4.6552774 0.273789,-0.045566 0.433563,-0.2053412 0.433563,-0.4792268 0,-0.2737884 -0.159774,-0.4335631 -0.433563,-0.4792269 C 31.64749,6.7551432 31.761601,6.6638155 30.962922,2.8985448 30.894474,2.6475397 30.757483,2.487765 30.483695,2.487765 c -0.273886,0 -0.41078,0.1597747 -0.479227,0.4107798 -0.798679,3.7652707 -0.661785,3.8565984 -4.632397,4.6551801 -0.251005,0.045664 -0.433563,0.2054385 -0.433563,0.4792269 0,0.2738856 0.182558,0.4336604 0.433563,0.4792268 3.970612,0.7987764 3.924948,0.8443429 4.632397,4.6552774 0.06845,0.251005 0.205341,0.41078 0.479227,0.41078 z"
             id="path164-4-1" /></g></g></g></g><style
     type="text/css"
     id="style1941">
	.st0{fill:none;stroke:#000000;stroke-width:2;stroke-linecap:round;stroke-linejoin:round;stroke-miterlimit:10;}
</style><style
     type="text/css"
     id="style1941-0">
	.st0{fill:none;stroke:#000000;stroke-width:2;stroke-linecap:round;stroke-linejoin:round;stroke-miterlimit:10;}
</style><style
     type="text/css"
     id="style1941-7">
	.st0{fill:none;stroke:#000000;stroke-width:2;stroke-linecap:round;stroke-linejoin:round;stroke-miterlimit:10;}
</style><style
     type="text/css"
     id="style22485">
	.st0{fill:none;stroke:#6C3DB7;stroke-width:4;stroke-linecap:round;stroke-linejoin:round;stroke-miterlimit:10;}
	.st1{fill:none;stroke:#1F992A;stroke-width:4;stroke-linecap:round;stroke-linejoin:round;stroke-miterlimit:10;}
	.st2{fill:none;stroke:#6A83BA;stroke-width:4;stroke-linecap:round;stroke-linejoin:round;stroke-miterlimit:10;}
	.st3{fill:#8A8AFF;stroke:#8A8AFF;stroke-width:2;stroke-linecap:round;stroke-linejoin:round;stroke-miterlimit:10;}
	.st4{fill:#6C3DB7;stroke:#6C3DB7;stroke-width:2;stroke-linecap:round;stroke-linejoin:round;stroke-miterlimit:10;}
	.st5{fill:#A576FF;stroke:#A576FF;stroke-width:2;stroke-linecap:round;stroke-linejoin:round;stroke-miterlimit:10;}
	.st6{fill:#F2BB41;stroke:#F2BB41;stroke-width:2;stroke-linecap:round;stroke-linejoin:round;stroke-miterlimit:10;}
	.st7{fill:#E08838;stroke:#E08838;stroke-width:2;stroke-linecap:round;stroke-linejoin:round;stroke-miterlimit:10;}
	.st8{fill:#1F992A;stroke:#1F992A;stroke-width:2;stroke-linecap:round;stroke-linejoin:round;stroke-miterlimit:10;}
	.st9{fill:#5EC11E;stroke:#5EC11E;stroke-width:2;stroke-linecap:round;stroke-linejoin:round;stroke-miterlimit:10;}
	.st10{fill:#E3FAFF;stroke:#E3FAFF;stroke-width:2;stroke-linecap:round;stroke-linejoin:round;stroke-miterlimit:10;}
	.st11{fill:#FF5093;stroke:#FF5093;stroke-width:2;stroke-linecap:round;stroke-linejoin:round;stroke-miterlimit:10;}
	.st12{fill:#B7257F;stroke:#B7257F;stroke-width:2;stroke-linecap:round;stroke-linejoin:round;stroke-miterlimit:10;}
	.st13{fill:#5189E5;stroke:#5189E5;stroke-width:2;stroke-linecap:round;stroke-linejoin:round;stroke-miterlimit:10;}
	.st14{fill:#6EBAFF;stroke:#6EBAFF;stroke-width:2;stroke-linecap:round;stroke-linejoin:round;stroke-miterlimit:10;}
	.st15{fill:#EDD977;stroke:#EDD977;stroke-width:2;stroke-linecap:round;stroke-linejoin:round;stroke-miterlimit:10;}
	.st16{fill:#8C43FF;stroke:#8C43FF;stroke-width:2;stroke-linecap:round;stroke-linejoin:round;stroke-miterlimit:10;}
	.st17{fill:#5252BA;stroke:#5252BA;stroke-width:2;stroke-linecap:round;stroke-linejoin:round;stroke-miterlimit:10;}
	.st18{fill:none;stroke:#E3FAFF;stroke-width:4;stroke-linecap:round;stroke-linejoin:round;stroke-miterlimit:10;}
	.st19{fill:#354C75;stroke:#354C75;stroke-width:2;stroke-linecap:round;stroke-linejoin:round;stroke-miterlimit:10;}
</style><style
     type="text/css"
     id="style23106">
	.st0{fill:none;stroke:#000000;stroke-width:2;stroke-linecap:round;stroke-linejoin:round;stroke-miterlimit:10;}
	.st1{fill:none;stroke:#000000;stroke-width:2;stroke-linejoin:round;stroke-miterlimit:10;}
</style><style
     type="text/css"
     id="style1941-1">
	.st0{fill:none;stroke:#000000;stroke-width:2;stroke-linecap:round;stroke-linejoin:round;stroke-miterlimit:10;}
</style><style
     type="text/css"
     id="style1941-0-8">
	.st0{fill:none;stroke:#000000;stroke-width:2;stroke-linecap:round;stroke-linejoin:round;stroke-miterlimit:10;}
</style><style
     type="text/css"
     id="style1941-7-7">
	.st0{fill:none;stroke:#000000;stroke-width:2;stroke-linecap:round;stroke-linejoin:round;stroke-miterlimit:10;}
</style><style
     type="text/css"
     id="style22485-9">
	.st0{fill:none;stroke:#6C3DB7;stroke-width:4;stroke-linecap:round;stroke-linejoin:round;stroke-miterlimit:10;}
	.st1{fill:none;stroke:#1F992A;stroke-width:4;stroke-linecap:round;stroke-linejoin:round;stroke-miterlimit:10;}
	.st2{fill:none;stroke:#6A83BA;stroke-width:4;stroke-linecap:round;stroke-linejoin:round;stroke-miterlimit:10;}
	.st3{fill:#8A8AFF;stroke:#8A8AFF;stroke-width:2;stroke-linecap:round;stroke-linejoin:round;stroke-miterlimit:10;}
	.st4{fill:#6C3DB7;stroke:#6C3DB7;stroke-width:2;stroke-linecap:round;stroke-linejoin:round;stroke-miterlimit:10;}
	.st5{fill:#A576FF;stroke:#A576FF;stroke-width:2;stroke-linecap:round;stroke-linejoin:round;stroke-miterlimit:10;}
	.st6{fill:#F2BB41;stroke:#F2BB41;stroke-width:2;stroke-linecap:round;stroke-linejoin:round;stroke-miterlimit:10;}
	.st7{fill:#E08838;stroke:#E08838;stroke-width:2;stroke-linecap:round;stroke-linejoin:round;stroke-miterlimit:10;}
	.st8{fill:#1F992A;stroke:#1F992A;stroke-width:2;stroke-linecap:round;stroke-linejoin:round;stroke-miterlimit:10;}
	.st9{fill:#5EC11E;stroke:#5EC11E;stroke-width:2;stroke-linecap:round;stroke-linejoin:round;stroke-miterlimit:10;}
	.st10{fill:#E3FAFF;stroke:#E3FAFF;stroke-width:2;stroke-linecap:round;stroke-linejoin:round;stroke-miterlimit:10;}
	.st11{fill:#FF5093;stroke:#FF5093;stroke-width:2;stroke-linecap:round;stroke-linejoin:round;stroke-miterlimit:10;}
	.st12{fill:#B7257F;stroke:#B7257F;stroke-width:2;stroke-linecap:round;stroke-linejoin:round;stroke-miterlimit:10;}
	.st13{fill:#5189E5;stroke:#5189E5;stroke-width:2;stroke-linecap:round;stroke-linejoin:round;stroke-miterlimit:10;}
	.st14{fill:#6EBAFF;stroke:#6EBAFF;stroke-width:2;stroke-linecap:round;stroke-linejoin:round;stroke-miterlimit:10;}
	.st15{fill:#EDD977;stroke:#EDD977;stroke-width:2;stroke-linecap:round;stroke-linejoin:round;stroke-miterlimit:10;}
	.st16{fill:#8C43FF;stroke:#8C43FF;stroke-width:2;stroke-linecap:round;stroke-linejoin:round;stroke-miterlimit:10;}
	.st17{fill:#5252BA;stroke:#5252BA;stroke-width:2;stroke-linecap:round;stroke-linejoin:round;stroke-miterlimit:10;}
	.st18{fill:none;stroke:#E3FAFF;stroke-width:4;stroke-linecap:round;stroke-linejoin:round;stroke-miterlimit:10;}
	.st19{fill:#354C75;stroke:#354C75;stroke-width:2;stroke-linecap:round;stroke-linejoin:round;stroke-miterlimit:10;}
</style><style
     type="text/css"
     id="style23106-2">
	.st0{fill:none;stroke:#000000;stroke-width:2;stroke-linecap:round;stroke-linejoin:round;stroke-miterlimit:10;}
	.st1{fill:none;stroke:#000000;stroke-width:2;stroke-linejoin:round;stroke-miterlimit:10;}
</style><style
     type="text/css"
     id="style4736">
<![CDATA[
	.st0{fill:#D1D1D1;}
	.st1{fill:#454545;}
]]>
</style><style
     type="text/css"
     id="style1">
	.st0{fill:none;stroke:#000000;stroke-width:2;stroke-linecap:round;stroke-linejoin:round;stroke-miterlimit:10;}
</style><style
     type="text/css"
     id="style1-4">
	.linesandangles_een{fill:#111918;}
</style><style
     type="text/css"
     id="style1-2">
	.st0{fill:#000000;}
</style><style
     type="text/css"
     id="style1-5">
	.st0{fill:#000000;}
</style><style
     type="text/css"
     id="style1-1">
	.st0{fill:#000000;}
</style><style
     type="text/css"
     id="style1-0">
	.st0{fill:#F26E91;}
	.st1{fill:#00A779;}
	.st2{fill:#C4FFC9;}
	.st3{fill:#AB630A;}
	.st4{fill:#C98C40;}
	.st5{fill:#15AA78;}
	.st6{fill:#FF9000;}
	.st7{fill:#FCEECF;}
	.st8{fill:#FFE940;}
	.st9{fill:#F0E3CE;}
	.st10{fill:#FFB5C5;}
	.st11{fill:#91EDFF;}
	.st12{fill:#7191F0;}
	.st13{fill:#363636;}
	.st14{fill:#565656;}
	.st15{fill:#F3DF4D;}
	.st16{fill:#CD4A77;}
	.st17{fill:#577AE6;}
	.st18{fill:#F4D100;}
</style><style
     type="text/css"
     id="style1-56">
	.st0{fill:#000000;}
</style></svg>
