<?xml version="1.0" encoding="UTF-8" standalone="no"?>
<!-- Created with Inkscape (http://www.inkscape.org/) -->

<svg
   width="250"
   height="250.00002"
   viewBox="0 0 66.145834 66.145837"
   version="1.1"
   id="svg5"
   xml:space="preserve"
   xmlns:xlink="http://www.w3.org/1999/xlink"
   xmlns="http://www.w3.org/2000/svg"
   xmlns:svg="http://www.w3.org/2000/svg"><defs
     id="defs2"><radialGradient
       id="radialGradient145"
       cx="77.121002"
       cy="66.694"
       r="76.183998"
       gradientTransform="rotate(-3.714,-608.323,2.714)"
       gradientUnits="userSpaceOnUse"><stop
         offset="0.17314792"
         stop-color="#ce93d8"
         id="stop142"
         style="stop-color:#00e54c;stop-opacity:1;" /><stop
         offset="0.58487624"
         stop-color="#ce93d8"
         id="stop144"
         style="stop-color:#0099e5;stop-opacity:1;" /><stop
         offset="0.91544926"
         stop-color="#ab47bc"
         id="stop145"
         style="stop-color:#6800b2;stop-opacity:1;" /></radialGradient><style
       id="style6568">.cls-1{fill:none;}.cls-2{clip-path:url(#clip-path);}</style><style
       id="style6568-5">.cls-1{fill:none;}.cls-2{clip-path:url(#clip-path);}</style><style
       id="style6568-9">.cls-1{fill:none;}.cls-2{clip-path:url(#clip-path);}</style><style
       id="style22571">.cls-1{fill:#84d0f7;}.cls-2{fill:#aa392d;}.cls-3{fill:#7c211a;}.cls-4{fill:#e59973;}.cls-5{fill:#2d2d2d;}.cls-6{opacity:0.2;}.cls-7{opacity:0.3;}</style><style
       id="style23309">
      .cls-1 {
        fill: none;
      }
    </style><style
       id="style6568-7">.cls-1{fill:none;}.cls-2{clip-path:url(#clip-path);}</style><style
       id="style6568-5-5">.cls-1{fill:none;}.cls-2{clip-path:url(#clip-path);}</style><style
       id="style6568-9-3">.cls-1{fill:none;}.cls-2{clip-path:url(#clip-path);}</style><style
       id="style22571-5">.cls-1{fill:#84d0f7;}.cls-2{fill:#aa392d;}.cls-3{fill:#7c211a;}.cls-4{fill:#e59973;}.cls-5{fill:#2d2d2d;}.cls-6{opacity:0.2;}.cls-7{opacity:0.3;}</style><style
       id="style23309-6">
      .cls-1 {
        fill: none;
      }
    </style><style
       id="style1-9">
      .cls-1 {
        fill: none;
      }
    </style><radialGradient
       xlink:href="#radialGradient145"
       id="radialGradient61"
       cx="272.16211"
       cy="730.65881"
       fx="272.16211"
       fy="730.65881"
       r="30.008102"
       gradientTransform="matrix(1.841253,-0.3333208,0.27879816,1.5400712,-435.36274,-306.08585)"
       gradientUnits="userSpaceOnUse" /></defs><g
     id="layer1"
     transform="translate(-221.62803,-706.89741)"><g
       id="g173-2"
       transform="matrix(0.94256985,0,0,0.94256985,-138.58313,-669.28726)"><g
         id="g248"
         transform="translate(1.1228169)"><path
           id="path148-2-2"
           style="font-size:45.861px;font-family:'Neue Leights';-inkscape-font-specification:'Neue Leights';letter-spacing:0px;stroke-width:0.264583"
           d="m 464.98539,1322.9006 a 0.38628692,0.38628692 0 0 0 -0.3867,0.3867 v 32.1016 a 0.38628692,0.38628692 0 0 0 0.3867,0.3867 h 8.4844 a 0.38628692,0.38628692 0 0 0 0.3672,-0.2676 l 3.7636,-11.625 3.8477,11.627 a 0.38628692,0.38628692 0 0 0 0.3672,0.2656 h 8.4394 a 0.38628692,0.38628692 0 0 0 0.3867,-0.3867 v -32.1016 a 0.38628692,0.38628692 0 0 0 -0.3867,-0.3867 h -4.4941 a 0.38628692,0.38628692 0 0 0 -0.3867,0.3867 v 23.5059 h -1.3067 l -4.6816,-14.2715 a 0.38628692,0.38628692 0 0 0 -0.3672,-0.2656 h -2.7969 a 0.38628692,0.38628692 0 0 0 -0.3672,0.2656 l -4.6836,14.2715 h -1.3515 v -23.5059 a 0.38628692,0.38628692 0 0 0 -0.3867,-0.3867 z m 93.793,0 a 0.38628692,0.38628692 0 0 0 -0.3868,0.3867 v 11.252 c -0.4335,-0.6692 -0.988,-1.2509 -1.6894,-1.7129 v 0 c -1.1988,-0.8089 -2.6293,-1.2109 -4.25,-1.2109 -1.3993,0 -2.6867,0.3042 -3.8438,0.9141 -1.1248,0.5784 -2.0906,1.4172 -2.8867,2.5 -0.7954,1.0816 -1.4111,2.3793 -1.8496,3.8828 a 0.38628692,0.38628692 0 0 0 0,0.01 c -0.408,1.5061 -0.6094,3.1757 -0.6094,5.0078 0,1.8322 0.2014,3.5017 0.6094,5.0078 a 0.38628692,0.38628692 0 0 0 0,0.01 c 0.4385,1.5033 1.0542,2.8011 1.8496,3.8828 0.7951,1.0813 1.758,1.9325 2.8789,2.541 a 0.38628692,0.38628692 0 0 0 0.012,0.01 c 1.1568,0.5783 2.4418,0.8672 3.8399,0.8672 1.6199,0 3.1145,-0.3852 4.457,-1.1524 a 0.38628692,0.38628692 0 0 0 0.01,0 c 0.8364,-0.4978 1.4786,-1.1408 1.957,-1.8867 0.071,0.73 0.2821,1.374 0.7363,1.8281 a 0.38628692,0.38628692 0 0 0 0.01,0.01 c 0.5429,0.5067 1.2971,0.7461 2.1895,0.7461 h 5.5039 a 0.38628692,0.38628692 0 0 0 0.3867,-0.3867 v -4.5391 a 0.38628692,0.38628692 0 0 0 -0.4043,-0.3867 l -3.7676,0.1641 0.09,-27.3379 a 0.38628692,0.38628692 0 0 0 -0.3867,-0.3887 z m -5.3204,13.9805 c 1.648,0 2.7873,0.5705 3.5762,1.7539 a 0.38628692,0.38628692 0 0 0 0.01,0.01 c 0.8192,1.1581 1.2578,2.9132 1.2578,5.2812 0,2.3994 -0.4402,4.1874 -1.2617,5.377 -0.7871,1.1526 -1.9296,1.7109 -3.5801,1.7109 -1.6486,0 -2.8277,-0.5598 -3.6757,-1.7168 v 0 c -0.8481,-1.1894 -1.3008,-2.9716 -1.3008,-5.3672 0,-2.3977 0.4544,-4.1635 1.3008,-5.3203 0.8484,-1.1594 2.0278,-1.7226 3.6777,-1.7226 z m 66.34951,-12.0547 c -0.6452,0 -1.1987,0.1674 -1.5801,0.5488 -0.3814,0.3814 -0.5488,0.9349 -0.5488,1.5801 v 1.2383 c 0,0.6452 0.1674,1.1986 0.5488,1.58 0.3814,0.3814 0.9349,0.5489 1.5801,0.5489 h 1.2383 c 0.6316,0 1.1761,-0.1703 1.5488,-0.5528 0.3727,-0.3825 0.5352,-0.9325 0.5352,-1.5761 v -1.2383 c 0,-0.6436 -0.1625,-1.1937 -0.5352,-1.5762 -0.3727,-0.3825 -0.9172,-0.5527 -1.5488,-0.5527 z m -87.74591,6.7871 c -2.2946,0.2067 -0.2625,-0.3054 -2.8125,0.3828 -0.8613,0.2241 -1.6624,0.5745 -2.3985,1.0547 -0.7035,0.4482 -1.3127,0.9963 -1.8261,1.6367 -0.2134,0.2534 -0.3909,0.5295 -0.5606,0.8106 l -0.3184,-3.0782 a 0.38628692,0.38628692 0 0 0 -0.3847,-0.3476 h -3.9903 a 0.38628692,0.38628692 0 0 0 -0.3867,0.3867 v 22.9297 a 0.38628692,0.38628692 0 0 0 0.3867,0.3867 h 4.4493 a 0.38628692,0.38628692 0 0 0 0.3867,-0.3867 v -12.7481 c 0,-1.9421 0.4525,-3.3345 1.3047,-4.2422 0.8521,-0.9076 2.1375,-1.3789 3.9492,-1.3789 1.78,0 3.0412,0.47 3.8789,1.377 0.8377,0.907 1.2832,2.301 1.2832,4.2441 v 12.7481 a 0.38628692,0.38628692 0 0 0 0.3867,0.3867 h 4.4024 a 0.38628692,0.38628692 0 0 0 0.3867,-0.3867 v -14.3086 c 0,-3.0236 -0.7195,-5.3779 -2.207,-6.9981 -1.4491,-1.6423 -3.4609,-2.4687 -5.9297,-2.4687 z m 47.5781,0 c -3.3235,0 -5.9549,1.0884 -7.7734,3.2578 -1.8184,2.1387 -2.7032,5.1736 -2.7032,9.0527 0,3.8805 0.8856,6.9312 2.7032,9.0996 1.8194,2.1386 4.4493,3.209 7.7715,3.209 2.9167,0 5.2683,-0.8427 6.9687,-2.543 1.6988,-1.731 2.6153,-4.1776 2.7715,-7.2696 a 0.38628692,0.38628692 0 0 0 -0.3867,-0.4062 h -4.4942 a 0.38628692,0.38628692 0 0 0 -0.3847,0.3672 c -0.089,1.6707 -0.5228,2.8674 -1.25,3.6425 -0.7273,0.7752 -1.7706,1.1719 -3.2266,1.1719 -1.7443,0 -2.9863,-0.5793 -3.8633,-1.7676 -0.8244,-1.1168 -1.2634,-2.8194 -1.3437,-5.0253 h 14.5625 a 0.38628692,0.38628692 0 0 0 0.3867,-0.3868 v -2.5683 a 0.38628692,0.38628692 0 0 0 0,-0.02 c -0.1562,-3.0908 -1.0716,-5.5216 -2.7715,-7.2226 -1.6996,-1.7316 -4.0525,-2.5918 -6.9707,-2.5918 z m 0,5.0391 c 1.2221,0 2.1567,0.2888 2.8555,0.8437 0.5903,0.4688 0.9922,1.1919 1.2714,2.0977 h -8.6054 c 0.8548,-1.974 2.2678,-2.9414 4.4785,-2.9414 z m -82.3613,-4.5801 a 0.38628692,0.38628692 0 0 0 -0.3868,0.3867 v 4.4473 a 0.38628692,0.38628692 0 0 0 0.3868,0.3867 h 9.7031 v 2.3457 c -2.1791,0.4968 -4.0844,1.0065 -5.6113,1.5351 -1.5795,0.5269 -2.8744,1.1184 -3.8907,1.7852 -1.015,0.666 -1.7933,1.4223 -2.3183,2.2754 a 0.38628692,0.38628692 0 0 0 -0.01,0.01 c -0.4904,0.8501 -0.7811,1.8404 -0.8769,2.9571 -0.095,1.171 -7e-4,2.2595 0.289,3.2578 a 0.38628692,0.38628692 0 0 0 0,0.016 c 0.3214,0.9638 0.8104,1.8081 1.459,2.5215 0.6504,0.7155 1.4481,1.2694 2.3828,1.6562 a 0.38628692,0.38628692 0 0 0 0.01,0 c 0.9666,0.3866 2.0262,0.5781 3.1699,0.5781 1.5508,0 2.9056,-0.3188 4.043,-0.9688 0.803,-0.4685 1.4024,-1.1153 1.9043,-1.8379 0.1003,0.6263 0.2977,1.1903 0.7012,1.5937 a 0.38628692,0.38628692 0 0 0 0.01,0.01 c 0.5429,0.5067 1.2969,0.7461 2.1895,0.7461 h 5.4121 a 0.38628692,0.38628692 0 0 0 0.3867,-0.3867 v -4.586 a 0.38628692,0.38628692 0 0 0 -0.4043,-0.3867 l -3.5859,0.1641 v -14.3145 c 0,-1.3209 -0.3657,-2.3905 -1.127,-3.1191 -0.7286,-0.7267 -1.7778,-1.0742 -3.0664,-1.0742 z m 9.7031,12.5547 v 1.6347 c 0,1.6773 -0.4206,2.9471 -1.2344,3.8731 -0.8124,0.9245 -1.9029,1.3828 -3.3789,1.3828 -1.03,0 -1.7734,-0.2527 -2.2988,-0.7207 -0.4897,-0.4934 -0.6856,-1.1192 -0.5742,-2.0098 0.055,-0.4689 0.1911,-0.8451 0.3964,-1.1543 0.2276,-0.3278 0.6194,-0.6631 1.1914,-0.9785 0.6134,-0.3211 1.4342,-0.6527 2.459,-0.9844 a 0.38628692,0.38628692 0 0 0 0.01,0 c 0.8981,-0.3169 2.1027,-0.6686 3.4297,-1.0351 z m 84.9023,-12.5547 a 0.38628692,0.38628692 0 0 0 -0.3867,0.3867 v 4.5859 a 0.38628692,0.38628692 0 0 0 0.4004,0.3867 l 4.7363,-0.1699 v 13.293 h -4.7949 a 0.38628692,0.38628692 0 0 0 -0.3867,0.3867 v 4.4473 a 0.38628692,0.38628692 0 0 0 0.3867,0.3867 h 14.7656 a 0.38628692,0.38628692 0 0 0 0.3868,-0.3867 v -4.4473 a 0.38628692,0.38628692 0 0 0 -0.3868,-0.3867 h -4.7949 v -8.832 c 0,-1.4935 0.3744,-2.5521 1.0801,-3.2578 0.7396,-0.7397 1.8117,-1.125 3.3027,-1.125 h 3.2559 a 0.38628692,0.38628692 0 0 0 0.3867,-0.3868 v -4.4941 a 0.38628692,0.38628692 0 0 0 -0.3867,-0.3867 h -4.2188 c -1.7432,0 -3.207,0.7052 -4.3359,2.0019 v -1.6152 a 0.38628692,0.38628692 0 0 0 -0.3867,-0.3867 z m 22.14641,0 a 0.38628692,0.38628692 0 0 0 -0.3868,0.3867 v 4.5859 a 0.38628692,0.38628692 0 0 0 0.4024,0.3867 l 4.2754,-0.1679 v 13.291 h -4.8418 a 0.38628692,0.38628692 0 0 0 -0.3867,0.3867 v 4.4473 a 0.38628692,0.38628692 0 0 0 0.3867,0.3867 h 14.8125 a 0.38628692,0.38628692 0 0 0 0.3867,-0.3867 v -4.4473 a 0.38628692,0.38628692 0 0 0 -0.3867,-0.3867 h -4.7949 v -14.2891 c 0,-1.3331 -0.339,-2.4034 -1.0645,-3.1289 -0.7255,-0.7255 -1.7957,-1.0644 -3.1289,-1.0644 z m 19.05549,0 a 0.38628692,0.38628692 0 0 0 -0.3867,0.3867 v 4.4473 a 0.38628692,0.38628692 0 0 0 0.3867,0.3867 h 9.7031 v 2.3457 c -2.179,0.4968 -4.0843,1.0065 -5.6113,1.5351 -1.5795,0.5269 -2.8727,1.1185 -3.8887,1.7852 -1.0148,0.6659 -1.795,1.4219 -2.3203,2.2754 a 0.38628692,0.38628692 0 0 0 -0.01,0.01 c -0.4907,0.8505 -0.7794,1.8408 -0.875,2.9571 -0.095,1.171 -7e-4,2.2595 0.289,3.2578 a 0.38628692,0.38628692 0 0 0 0,0.016 c 0.3211,0.9634 0.8082,1.8078 1.4571,2.5215 0.6507,0.7158 1.4503,1.2695 2.3847,1.6562 a 0.38628692,0.38628692 0 0 0 0.01,0 c 0.9664,0.3866 2.0243,0.5781 3.1679,0.5781 1.5508,0 2.9074,-0.3188 4.045,-0.9688 0.8029,-0.4684 1.4024,-1.1154 1.9043,-1.8379 0.1,0.6261 0.2954,1.19 0.6992,1.5937 a 0.38628692,0.38628692 0 0 0 0.01,0.01 c 0.5429,0.5067 1.297,0.7461 2.1894,0.7461 h 5.4121 a 0.38628692,0.38628692 0 0 0 0.3867,-0.3867 v -4.586 a 0.38628692,0.38628692 0 0 0 -0.4043,-0.3867 l -3.5859,0.1641 v -14.3145 c 0,-1.3205 -0.3635,-2.3903 -1.125,-3.1191 -0.7289,-0.7269 -1.7796,-1.0742 -3.0684,-1.0742 z m 9.7031,12.5547 v 1.6347 c 0,1.6773 -0.4207,2.9471 -1.2344,3.8731 -0.8127,0.9248 -1.901,1.3828 -3.3769,1.3828 -1.0301,0 -1.7734,-0.2527 -2.2988,-0.7207 -0.49,-0.4937 -0.6876,-1.1197 -0.5762,-2.0098 0.055,-0.4688 0.1911,-0.845 0.3965,-1.1543 0.2274,-0.3277 0.6194,-0.6631 1.1914,-0.9785 0.613,-0.3209 1.4358,-0.6527 2.4609,-0.9844 a 0.38628692,0.38628692 0 0 0 0.01,0 c 0.8981,-0.3169 2.1013,-0.6687 3.4277,-1.0351 z" /></g><g
         id="g248-08"
         transform="matrix(1.3462275,0,0,1.3462275,224.84386,80.75737)"><path
           id="path148-2-2-1"
           style="font-size:45.861px;font-family:'Neue Leights';-inkscape-font-specification:'Neue Leights';letter-spacing:0px;stroke-width:0.264583"
           d="m 464.98539,1322.9006 a 0.38628692,0.38628692 0 0 0 -0.3867,0.3867 v 32.1016 a 0.38628692,0.38628692 0 0 0 0.3867,0.3867 h 8.4844 a 0.38628692,0.38628692 0 0 0 0.3672,-0.2676 l 3.7636,-11.625 3.8477,11.627 a 0.38628692,0.38628692 0 0 0 0.3672,0.2656 h 8.4394 a 0.38628692,0.38628692 0 0 0 0.3867,-0.3867 v -32.1016 a 0.38628692,0.38628692 0 0 0 -0.3867,-0.3867 h -4.4941 a 0.38628692,0.38628692 0 0 0 -0.3867,0.3867 v 23.5059 h -1.3067 l -4.6816,-14.2715 a 0.38628692,0.38628692 0 0 0 -0.3672,-0.2656 h -2.7969 a 0.38628692,0.38628692 0 0 0 -0.3672,0.2656 l -4.6836,14.2715 h -1.3515 v -23.5059 a 0.38628692,0.38628692 0 0 0 -0.3867,-0.3867 z m 93.793,0 a 0.38628692,0.38628692 0 0 0 -0.3868,0.3867 v 11.252 c -0.4335,-0.6692 -0.988,-1.2509 -1.6894,-1.7129 v 0 c -1.1988,-0.8089 -2.6293,-1.2109 -4.25,-1.2109 -1.3993,0 -2.6867,0.3042 -3.8438,0.9141 -1.1248,0.5784 -2.0906,1.4172 -2.8867,2.5 -0.7954,1.0816 -1.4111,2.3793 -1.8496,3.8828 a 0.38628692,0.38628692 0 0 0 0,0.01 c -0.408,1.5061 -0.6094,3.1757 -0.6094,5.0078 0,1.8322 0.2014,3.5017 0.6094,5.0078 a 0.38628692,0.38628692 0 0 0 0,0.01 c 0.4385,1.5033 1.0542,2.8011 1.8496,3.8828 0.7951,1.0813 1.758,1.9325 2.8789,2.541 a 0.38628692,0.38628692 0 0 0 0.012,0.01 c 1.1568,0.5783 2.4418,0.8672 3.8399,0.8672 1.6199,0 3.1145,-0.3852 4.457,-1.1524 a 0.38628692,0.38628692 0 0 0 0.01,0 c 0.8364,-0.4978 1.4786,-1.1408 1.957,-1.8867 0.071,0.73 0.2821,1.374 0.7363,1.8281 a 0.38628692,0.38628692 0 0 0 0.01,0.01 c 0.5429,0.5067 1.2971,0.7461 2.1895,0.7461 h 5.5039 a 0.38628692,0.38628692 0 0 0 0.3867,-0.3867 v -4.5391 a 0.38628692,0.38628692 0 0 0 -0.4043,-0.3867 l -3.7676,0.1641 0.09,-27.3379 a 0.38628692,0.38628692 0 0 0 -0.3867,-0.3887 z m -5.3204,13.9805 c 1.648,0 2.7873,0.5705 3.5762,1.7539 a 0.38628692,0.38628692 0 0 0 0.01,0.01 c 0.8192,1.1581 1.2578,2.9132 1.2578,5.2812 0,2.3994 -0.4402,4.1874 -1.2617,5.377 -0.7871,1.1526 -1.9296,1.7109 -3.5801,1.7109 -1.6486,0 -2.8277,-0.5598 -3.6757,-1.7168 v 0 c -0.8481,-1.1894 -1.3008,-2.9716 -1.3008,-5.3672 0,-2.3977 0.4544,-4.1635 1.3008,-5.3203 0.8484,-1.1594 2.0278,-1.7226 3.6777,-1.7226 z m 66.34951,-12.0547 c -0.6452,0 -1.1987,0.1674 -1.5801,0.5488 -0.3814,0.3814 -0.5488,0.9349 -0.5488,1.5801 v 1.2383 c 0,0.6452 0.1674,1.1986 0.5488,1.58 0.3814,0.3814 0.9349,0.5489 1.5801,0.5489 h 1.2383 c 0.6316,0 1.1761,-0.1703 1.5488,-0.5528 0.3727,-0.3825 0.5352,-0.9325 0.5352,-1.5761 v -1.2383 c 0,-0.6436 -0.1625,-1.1937 -0.5352,-1.5762 -0.3727,-0.3825 -0.9172,-0.5527 -1.5488,-0.5527 z m -87.74591,6.7871 c -2.2946,0.2067 -0.2625,-0.3054 -2.8125,0.3828 -0.8613,0.2241 -1.6624,0.5745 -2.3985,1.0547 -0.7035,0.4482 -1.3127,0.9963 -1.8261,1.6367 -0.2134,0.2534 -0.3909,0.5295 -0.5606,0.8106 l -0.3184,-3.0782 a 0.38628692,0.38628692 0 0 0 -0.3847,-0.3476 h -3.9903 a 0.38628692,0.38628692 0 0 0 -0.3867,0.3867 v 22.9297 a 0.38628692,0.38628692 0 0 0 0.3867,0.3867 h 4.4493 a 0.38628692,0.38628692 0 0 0 0.3867,-0.3867 v -12.7481 c 0,-1.9421 0.4525,-3.3345 1.3047,-4.2422 0.8521,-0.9076 2.1375,-1.3789 3.9492,-1.3789 1.78,0 3.0412,0.47 3.8789,1.377 0.8377,0.907 1.2832,2.301 1.2832,4.2441 v 12.7481 a 0.38628692,0.38628692 0 0 0 0.3867,0.3867 h 4.4024 a 0.38628692,0.38628692 0 0 0 0.3867,-0.3867 v -14.3086 c 0,-3.0236 -0.7195,-5.3779 -2.207,-6.9981 -1.4491,-1.6423 -3.4609,-2.4687 -5.9297,-2.4687 z m 47.5781,0 c -3.3235,0 -5.9549,1.0884 -7.7734,3.2578 -1.8184,2.1387 -2.7032,5.1736 -2.7032,9.0527 0,3.8805 0.8856,6.9312 2.7032,9.0996 1.8194,2.1386 4.4493,3.209 7.7715,3.209 2.9167,0 5.2683,-0.8427 6.9687,-2.543 1.6988,-1.731 2.6153,-4.1776 2.7715,-7.2696 a 0.38628692,0.38628692 0 0 0 -0.3867,-0.4062 h -4.4942 a 0.38628692,0.38628692 0 0 0 -0.3847,0.3672 c -0.089,1.6707 -0.5228,2.8674 -1.25,3.6425 -0.7273,0.7752 -1.7706,1.1719 -3.2266,1.1719 -1.7443,0 -2.9863,-0.5793 -3.8633,-1.7676 -0.8244,-1.1168 -1.2634,-2.8194 -1.3437,-5.0253 h 14.5625 a 0.38628692,0.38628692 0 0 0 0.3867,-0.3868 v -2.5683 a 0.38628692,0.38628692 0 0 0 0,-0.02 c -0.1562,-3.0908 -1.0716,-5.5216 -2.7715,-7.2226 -1.6996,-1.7316 -4.0525,-2.5918 -6.9707,-2.5918 z m 0,5.0391 c 1.2221,0 2.1567,0.2888 2.8555,0.8437 0.5903,0.4688 0.9922,1.1919 1.2714,2.0977 h -8.6054 c 0.8548,-1.974 2.2678,-2.9414 4.4785,-2.9414 z m -82.3613,-4.5801 a 0.38628692,0.38628692 0 0 0 -0.3868,0.3867 v 4.4473 a 0.38628692,0.38628692 0 0 0 0.3868,0.3867 h 9.7031 v 2.3457 c -2.1791,0.4968 -4.0844,1.0065 -5.6113,1.5351 -1.5795,0.5269 -2.8744,1.1184 -3.8907,1.7852 -1.015,0.666 -1.7933,1.4223 -2.3183,2.2754 a 0.38628692,0.38628692 0 0 0 -0.01,0.01 c -0.4904,0.8501 -0.7811,1.8404 -0.8769,2.9571 -0.095,1.171 -7e-4,2.2595 0.289,3.2578 a 0.38628692,0.38628692 0 0 0 0,0.016 c 0.3214,0.9638 0.8104,1.8081 1.459,2.5215 0.6504,0.7155 1.4481,1.2694 2.3828,1.6562 a 0.38628692,0.38628692 0 0 0 0.01,0 c 0.9666,0.3866 2.0262,0.5781 3.1699,0.5781 1.5508,0 2.9056,-0.3188 4.043,-0.9688 0.803,-0.4685 1.4024,-1.1153 1.9043,-1.8379 0.1003,0.6263 0.2977,1.1903 0.7012,1.5937 a 0.38628692,0.38628692 0 0 0 0.01,0.01 c 0.5429,0.5067 1.2969,0.7461 2.1895,0.7461 h 5.4121 a 0.38628692,0.38628692 0 0 0 0.3867,-0.3867 v -4.586 a 0.38628692,0.38628692 0 0 0 -0.4043,-0.3867 l -3.5859,0.1641 v -14.3145 c 0,-1.3209 -0.3657,-2.3905 -1.127,-3.1191 -0.7286,-0.7267 -1.7778,-1.0742 -3.0664,-1.0742 z m 9.7031,12.5547 v 1.6347 c 0,1.6773 -0.4206,2.9471 -1.2344,3.8731 -0.8124,0.9245 -1.9029,1.3828 -3.3789,1.3828 -1.03,0 -1.7734,-0.2527 -2.2988,-0.7207 -0.4897,-0.4934 -0.6856,-1.1192 -0.5742,-2.0098 0.055,-0.4689 0.1911,-0.8451 0.3964,-1.1543 0.2276,-0.3278 0.6194,-0.6631 1.1914,-0.9785 0.6134,-0.3211 1.4342,-0.6527 2.459,-0.9844 a 0.38628692,0.38628692 0 0 0 0.01,0 c 0.8981,-0.3169 2.1027,-0.6686 3.4297,-1.0351 z m 84.9023,-12.5547 a 0.38628692,0.38628692 0 0 0 -0.3867,0.3867 v 4.5859 a 0.38628692,0.38628692 0 0 0 0.4004,0.3867 l 4.7363,-0.1699 v 13.293 h -4.7949 a 0.38628692,0.38628692 0 0 0 -0.3867,0.3867 v 4.4473 a 0.38628692,0.38628692 0 0 0 0.3867,0.3867 h 14.7656 a 0.38628692,0.38628692 0 0 0 0.3868,-0.3867 v -4.4473 a 0.38628692,0.38628692 0 0 0 -0.3868,-0.3867 h -4.7949 v -8.832 c 0,-1.4935 0.3744,-2.5521 1.0801,-3.2578 0.7396,-0.7397 1.8117,-1.125 3.3027,-1.125 h 3.2559 a 0.38628692,0.38628692 0 0 0 0.3867,-0.3868 v -4.4941 a 0.38628692,0.38628692 0 0 0 -0.3867,-0.3867 h -4.2188 c -1.7432,0 -3.207,0.7052 -4.3359,2.0019 v -1.6152 a 0.38628692,0.38628692 0 0 0 -0.3867,-0.3867 z m 22.14641,0 a 0.38628692,0.38628692 0 0 0 -0.3868,0.3867 v 4.5859 a 0.38628692,0.38628692 0 0 0 0.4024,0.3867 l 4.2754,-0.1679 v 13.291 h -4.8418 a 0.38628692,0.38628692 0 0 0 -0.3867,0.3867 v 4.4473 a 0.38628692,0.38628692 0 0 0 0.3867,0.3867 h 14.8125 a 0.38628692,0.38628692 0 0 0 0.3867,-0.3867 v -4.4473 a 0.38628692,0.38628692 0 0 0 -0.3867,-0.3867 h -4.7949 v -14.2891 c 0,-1.3331 -0.339,-2.4034 -1.0645,-3.1289 -0.7255,-0.7255 -1.7957,-1.0644 -3.1289,-1.0644 z m 19.05549,0 a 0.38628692,0.38628692 0 0 0 -0.3867,0.3867 v 4.4473 a 0.38628692,0.38628692 0 0 0 0.3867,0.3867 h 9.7031 v 2.3457 c -2.179,0.4968 -4.0843,1.0065 -5.6113,1.5351 -1.5795,0.5269 -2.8727,1.1185 -3.8887,1.7852 -1.0148,0.6659 -1.795,1.4219 -2.3203,2.2754 a 0.38628692,0.38628692 0 0 0 -0.01,0.01 c -0.4907,0.8505 -0.7794,1.8408 -0.875,2.9571 -0.095,1.171 -7e-4,2.2595 0.289,3.2578 a 0.38628692,0.38628692 0 0 0 0,0.016 c 0.3211,0.9634 0.8082,1.8078 1.4571,2.5215 0.6507,0.7158 1.4503,1.2695 2.3847,1.6562 a 0.38628692,0.38628692 0 0 0 0.01,0 c 0.9664,0.3866 2.0243,0.5781 3.1679,0.5781 1.5508,0 2.9074,-0.3188 4.045,-0.9688 0.8029,-0.4684 1.4024,-1.1154 1.9043,-1.8379 0.1,0.6261 0.2954,1.19 0.6992,1.5937 a 0.38628692,0.38628692 0 0 0 0.01,0.01 c 0.5429,0.5067 1.297,0.7461 2.1894,0.7461 h 5.4121 a 0.38628692,0.38628692 0 0 0 0.3867,-0.3867 v -4.586 a 0.38628692,0.38628692 0 0 0 -0.4043,-0.3867 l -3.5859,0.1641 v -14.3145 c 0,-1.3205 -0.3635,-2.3903 -1.125,-3.1191 -0.7289,-0.7269 -1.7796,-1.0742 -3.0684,-1.0742 z m 9.7031,12.5547 v 1.6347 c 0,1.6773 -0.4207,2.9471 -1.2344,3.8731 -0.8127,0.9248 -1.901,1.3828 -3.3769,1.3828 -1.0301,0 -1.7734,-0.2527 -2.2988,-0.7207 -0.49,-0.4937 -0.6876,-1.1197 -0.5762,-2.0098 0.055,-0.4688 0.1911,-0.845 0.3965,-1.1543 0.2274,-0.3277 0.6194,-0.6631 1.1914,-0.9785 0.613,-0.3209 1.4358,-0.6527 2.4609,-0.9844 a 0.38628692,0.38628692 0 0 0 0.01,0 c 0.8981,-0.3169 2.1013,-0.6687 3.4277,-1.0351 z" /></g><g
         id="g249-0"
         transform="matrix(1.3462275,0,0,1.3462275,224.84386,223.09354)"
         style="fill:#ffffff"><path
           id="path249-2"
           style="font-size:45.861px;font-family:'Neue Leights';-inkscape-font-specification:'Neue Leights';letter-spacing:0px;fill:#ffffff;stroke-width:0.264583"
           d="m 464.98539,1322.9006 a 0.38628692,0.38628692 0 0 0 -0.3867,0.3867 v 32.1016 a 0.38628692,0.38628692 0 0 0 0.3867,0.3867 h 8.4844 a 0.38628692,0.38628692 0 0 0 0.3672,-0.2676 l 3.7636,-11.625 3.8477,11.627 a 0.38628692,0.38628692 0 0 0 0.3672,0.2656 h 8.4394 a 0.38628692,0.38628692 0 0 0 0.3867,-0.3867 v -32.1016 a 0.38628692,0.38628692 0 0 0 -0.3867,-0.3867 h -4.4941 a 0.38628692,0.38628692 0 0 0 -0.3867,0.3867 v 23.5059 h -1.3067 l -4.6816,-14.2715 a 0.38628692,0.38628692 0 0 0 -0.3672,-0.2656 h -2.7969 a 0.38628692,0.38628692 0 0 0 -0.3672,0.2656 l -4.6836,14.2715 h -1.3515 v -23.5059 a 0.38628692,0.38628692 0 0 0 -0.3867,-0.3867 z m 93.793,0 a 0.38628692,0.38628692 0 0 0 -0.3868,0.3867 v 11.252 c -0.4335,-0.6692 -0.988,-1.2509 -1.6894,-1.7129 v 0 c -1.1988,-0.8089 -2.6293,-1.2109 -4.25,-1.2109 -1.3993,0 -2.6867,0.3042 -3.8438,0.9141 -1.1248,0.5784 -2.0906,1.4172 -2.8867,2.5 -0.7954,1.0816 -1.4111,2.3793 -1.8496,3.8828 a 0.38628692,0.38628692 0 0 0 0,0.01 c -0.408,1.5061 -0.6094,3.1757 -0.6094,5.0078 0,1.8322 0.2014,3.5017 0.6094,5.0078 a 0.38628692,0.38628692 0 0 0 0,0.01 c 0.4385,1.5033 1.0542,2.8011 1.8496,3.8828 0.7951,1.0813 1.758,1.9325 2.8789,2.541 a 0.38628692,0.38628692 0 0 0 0.012,0.01 c 1.1568,0.5783 2.4418,0.8672 3.8399,0.8672 1.6199,0 3.1145,-0.3852 4.457,-1.1524 a 0.38628692,0.38628692 0 0 0 0.01,0 c 0.8364,-0.4978 1.4786,-1.1408 1.957,-1.8867 0.071,0.73 0.2821,1.374 0.7363,1.8281 a 0.38628692,0.38628692 0 0 0 0.01,0.01 c 0.5429,0.5067 1.2971,0.7461 2.1895,0.7461 h 5.5039 a 0.38628692,0.38628692 0 0 0 0.3867,-0.3867 v -4.5391 a 0.38628692,0.38628692 0 0 0 -0.4043,-0.3867 l -3.7676,0.1641 0.09,-27.3379 a 0.38628692,0.38628692 0 0 0 -0.3867,-0.3887 z m -5.3204,13.9805 c 1.648,0 2.7873,0.5705 3.5762,1.7539 a 0.38628692,0.38628692 0 0 0 0.01,0.01 c 0.8192,1.1581 1.2578,2.9132 1.2578,5.2812 0,2.3994 -0.4402,4.1874 -1.2617,5.377 -0.7871,1.1526 -1.9296,1.7109 -3.5801,1.7109 -1.6486,0 -2.8277,-0.5598 -3.6757,-1.7168 v 0 c -0.8481,-1.1894 -1.3008,-2.9716 -1.3008,-5.3672 0,-2.3977 0.4544,-4.1635 1.3008,-5.3203 0.8484,-1.1594 2.0278,-1.7226 3.6777,-1.7226 z m 66.34951,-12.0547 c -0.6452,0 -1.1987,0.1674 -1.5801,0.5488 -0.3814,0.3814 -0.5488,0.9349 -0.5488,1.5801 v 1.2383 c 0,0.6452 0.1674,1.1986 0.5488,1.58 0.3814,0.3814 0.9349,0.5489 1.5801,0.5489 h 1.2383 c 0.6316,0 1.1761,-0.1703 1.5488,-0.5528 0.3727,-0.3825 0.5352,-0.9325 0.5352,-1.5761 v -1.2383 c 0,-0.6436 -0.1625,-1.1937 -0.5352,-1.5762 -0.3727,-0.3825 -0.9172,-0.5527 -1.5488,-0.5527 z m -87.74591,6.7871 c -2.2946,0.2067 -0.2625,-0.3054 -2.8125,0.3828 -0.8613,0.2241 -1.6624,0.5745 -2.3985,1.0547 -0.7035,0.4482 -1.3127,0.9963 -1.8261,1.6367 -0.2134,0.2534 -0.3909,0.5295 -0.5606,0.8106 l -0.3184,-3.0782 a 0.38628692,0.38628692 0 0 0 -0.3847,-0.3476 h -3.9903 a 0.38628692,0.38628692 0 0 0 -0.3867,0.3867 v 22.9297 a 0.38628692,0.38628692 0 0 0 0.3867,0.3867 h 4.4493 a 0.38628692,0.38628692 0 0 0 0.3867,-0.3867 v -12.7481 c 0,-1.9421 0.4525,-3.3345 1.3047,-4.2422 0.8521,-0.9076 2.1375,-1.3789 3.9492,-1.3789 1.78,0 3.0412,0.47 3.8789,1.377 0.8377,0.907 1.2832,2.301 1.2832,4.2441 v 12.7481 a 0.38628692,0.38628692 0 0 0 0.3867,0.3867 h 4.4024 a 0.38628692,0.38628692 0 0 0 0.3867,-0.3867 v -14.3086 c 0,-3.0236 -0.7195,-5.3779 -2.207,-6.9981 -1.4491,-1.6423 -3.4609,-2.4687 -5.9297,-2.4687 z m 47.5781,0 c -3.3235,0 -5.9549,1.0884 -7.7734,3.2578 -1.8184,2.1387 -2.7032,5.1736 -2.7032,9.0527 0,3.8805 0.8856,6.9312 2.7032,9.0996 1.8194,2.1386 4.4493,3.209 7.7715,3.209 2.9167,0 5.2683,-0.8427 6.9687,-2.543 1.6988,-1.731 2.6153,-4.1776 2.7715,-7.2696 a 0.38628692,0.38628692 0 0 0 -0.3867,-0.4062 h -4.4942 a 0.38628692,0.38628692 0 0 0 -0.3847,0.3672 c -0.089,1.6707 -0.5228,2.8674 -1.25,3.6425 -0.7273,0.7752 -1.7706,1.1719 -3.2266,1.1719 -1.7443,0 -2.9863,-0.5793 -3.8633,-1.7676 -0.8244,-1.1168 -1.2634,-2.8194 -1.3437,-5.0253 h 14.5625 a 0.38628692,0.38628692 0 0 0 0.3867,-0.3868 v -2.5683 a 0.38628692,0.38628692 0 0 0 0,-0.02 c -0.1562,-3.0908 -1.0716,-5.5216 -2.7715,-7.2226 -1.6996,-1.7316 -4.0525,-2.5918 -6.9707,-2.5918 z m 0,5.0391 c 1.2221,0 2.1567,0.2888 2.8555,0.8437 0.5903,0.4688 0.9922,1.1919 1.2714,2.0977 h -8.6054 c 0.8548,-1.974 2.2678,-2.9414 4.4785,-2.9414 z m -82.3613,-4.5801 a 0.38628692,0.38628692 0 0 0 -0.3868,0.3867 v 4.4473 a 0.38628692,0.38628692 0 0 0 0.3868,0.3867 h 9.7031 v 2.3457 c -2.1791,0.4968 -4.0844,1.0065 -5.6113,1.5351 -1.5795,0.5269 -2.8744,1.1184 -3.8907,1.7852 -1.015,0.666 -1.7933,1.4223 -2.3183,2.2754 a 0.38628692,0.38628692 0 0 0 -0.01,0.01 c -0.4904,0.8501 -0.7811,1.8404 -0.8769,2.9571 -0.095,1.171 -7e-4,2.2595 0.289,3.2578 a 0.38628692,0.38628692 0 0 0 0,0.016 c 0.3214,0.9638 0.8104,1.8081 1.459,2.5215 0.6504,0.7155 1.4481,1.2694 2.3828,1.6562 a 0.38628692,0.38628692 0 0 0 0.01,0 c 0.9666,0.3866 2.0262,0.5781 3.1699,0.5781 1.5508,0 2.9056,-0.3188 4.043,-0.9688 0.803,-0.4685 1.4024,-1.1153 1.9043,-1.8379 0.1003,0.6263 0.2977,1.1903 0.7012,1.5937 a 0.38628692,0.38628692 0 0 0 0.01,0.01 c 0.5429,0.5067 1.2969,0.7461 2.1895,0.7461 h 5.4121 a 0.38628692,0.38628692 0 0 0 0.3867,-0.3867 v -4.586 a 0.38628692,0.38628692 0 0 0 -0.4043,-0.3867 l -3.5859,0.1641 v -14.3145 c 0,-1.3209 -0.3657,-2.3905 -1.127,-3.1191 -0.7286,-0.7267 -1.7778,-1.0742 -3.0664,-1.0742 z m 9.7031,12.5547 v 1.6347 c 0,1.6773 -0.4206,2.9471 -1.2344,3.8731 -0.8124,0.9245 -1.9029,1.3828 -3.3789,1.3828 -1.03,0 -1.7734,-0.2527 -2.2988,-0.7207 -0.4897,-0.4934 -0.6856,-1.1192 -0.5742,-2.0098 0.055,-0.4689 0.1911,-0.8451 0.3964,-1.1543 0.2276,-0.3278 0.6194,-0.6631 1.1914,-0.9785 0.6134,-0.3211 1.4342,-0.6527 2.459,-0.9844 a 0.38628692,0.38628692 0 0 0 0.01,0 c 0.8981,-0.3169 2.1027,-0.6686 3.4297,-1.0351 z m 84.9023,-12.5547 a 0.38628692,0.38628692 0 0 0 -0.3867,0.3867 v 4.5859 a 0.38628692,0.38628692 0 0 0 0.4004,0.3867 l 4.7363,-0.1699 v 13.293 h -4.7949 a 0.38628692,0.38628692 0 0 0 -0.3867,0.3867 v 4.4473 a 0.38628692,0.38628692 0 0 0 0.3867,0.3867 h 14.7656 a 0.38628692,0.38628692 0 0 0 0.3868,-0.3867 v -4.4473 a 0.38628692,0.38628692 0 0 0 -0.3868,-0.3867 h -4.7949 v -8.832 c 0,-1.4935 0.3744,-2.5521 1.0801,-3.2578 0.7396,-0.7397 1.8117,-1.125 3.3027,-1.125 h 3.2559 a 0.38628692,0.38628692 0 0 0 0.3867,-0.3868 v -4.4941 a 0.38628692,0.38628692 0 0 0 -0.3867,-0.3867 h -4.2188 c -1.7432,0 -3.207,0.7052 -4.3359,2.0019 v -1.6152 a 0.38628692,0.38628692 0 0 0 -0.3867,-0.3867 z m 22.14641,0 a 0.38628692,0.38628692 0 0 0 -0.3868,0.3867 v 4.5859 a 0.38628692,0.38628692 0 0 0 0.4024,0.3867 l 4.2754,-0.1679 v 13.291 h -4.8418 a 0.38628692,0.38628692 0 0 0 -0.3867,0.3867 v 4.4473 a 0.38628692,0.38628692 0 0 0 0.3867,0.3867 h 14.8125 a 0.38628692,0.38628692 0 0 0 0.3867,-0.3867 v -4.4473 a 0.38628692,0.38628692 0 0 0 -0.3867,-0.3867 h -4.7949 v -14.2891 c 0,-1.3331 -0.339,-2.4034 -1.0645,-3.1289 -0.7255,-0.7255 -1.7957,-1.0644 -3.1289,-1.0644 z m 19.05549,0 a 0.38628692,0.38628692 0 0 0 -0.3867,0.3867 v 4.4473 a 0.38628692,0.38628692 0 0 0 0.3867,0.3867 h 9.7031 v 2.3457 c -2.179,0.4968 -4.0843,1.0065 -5.6113,1.5351 -1.5795,0.5269 -2.8727,1.1185 -3.8887,1.7852 -1.0148,0.6659 -1.795,1.4219 -2.3203,2.2754 a 0.38628692,0.38628692 0 0 0 -0.01,0.01 c -0.4907,0.8505 -0.7794,1.8408 -0.875,2.9571 -0.095,1.171 -7e-4,2.2595 0.289,3.2578 a 0.38628692,0.38628692 0 0 0 0,0.016 c 0.3211,0.9634 0.8082,1.8078 1.4571,2.5215 0.6507,0.7158 1.4503,1.2695 2.3847,1.6562 a 0.38628692,0.38628692 0 0 0 0.01,0 c 0.9664,0.3866 2.0243,0.5781 3.1679,0.5781 1.5508,0 2.9074,-0.3188 4.045,-0.9688 0.8029,-0.4684 1.4024,-1.1154 1.9043,-1.8379 0.1,0.6261 0.2954,1.19 0.6992,1.5937 a 0.38628692,0.38628692 0 0 0 0.01,0.01 c 0.5429,0.5067 1.297,0.7461 2.1894,0.7461 h 5.4121 a 0.38628692,0.38628692 0 0 0 0.3867,-0.3867 v -4.586 a 0.38628692,0.38628692 0 0 0 -0.4043,-0.3867 l -3.5859,0.1641 v -14.3145 c 0,-1.3205 -0.3635,-2.3903 -1.125,-3.1191 -0.7289,-0.7269 -1.7796,-1.0742 -3.0684,-1.0742 z m 9.7031,12.5547 v 1.6347 c 0,1.6773 -0.4207,2.9471 -1.2344,3.8731 -0.8127,0.9248 -1.901,1.3828 -3.3769,1.3828 -1.0301,0 -1.7734,-0.2527 -2.2988,-0.7207 -0.49,-0.4937 -0.6876,-1.1197 -0.5762,-2.0098 0.055,-0.4688 0.1911,-0.845 0.3965,-1.1543 0.2274,-0.3277 0.6194,-0.6631 1.1914,-0.9785 0.613,-0.3209 1.4358,-0.6527 2.4609,-0.9844 a 0.38628692,0.38628692 0 0 0 0.01,0 c 0.8981,-0.3169 2.1013,-0.6687 3.4277,-1.0351 z" /></g><g
         id="g314-1-1-5"
         transform="matrix(0.96138659,0,0,0.96463109,-1662.5883,391.11004)"><g
           id="g179-3-6-2-9"
           transform="matrix(1.4181634,-0.37999574,0.37999574,1.4181634,-211.54439,1155.273)"
           style="fill:#000000;fill-opacity:0;stroke:#000000;stroke-width:4.96337;stroke-dasharray:none;stroke-opacity:1"><g
             id="g22-02-3-9-2-4"
             transform="matrix(0.61903904,0,0,0.61903904,892.29577,9.0735992)"
             style="fill:#000000;fill-opacity:0;stroke:#000000;stroke-width:9.62144;stroke-dasharray:none;stroke-opacity:1"><radialGradient
               id="radialGradient2-9-8-8-0-9"
               cx="77.121002"
               cy="66.694"
               r="76.183998"
               gradientTransform="rotate(-3.714,-608.323,2.714)"
               gradientUnits="userSpaceOnUse"><stop
                 offset=".104"
                 stop-color="#ce93d8"
                 id="stop1-1-0-1-2-0" /><stop
                 offset="1"
                 stop-color="#ab47bc"
                 id="stop2-9-4-3-1-9" /></radialGradient><path
               d="M 77.070441,10.785315 C 72.945465,9.5023146 68.561618,8.8102972 63.999914,8.8102974 c -24.329533,0 -43.948955,19.6200956 -43.948955,43.9496086 -2e-6,24.329531 19.619704,43.949391 43.949176,43.949391 23.223112,0 42.154755,-17.876476 43.828535,-40.661355 -4.96485,3.969817 -12.878652,1.308405 -14.142485,-5.37819 l -0.01182,-0.06014 -0.01016,-0.05905 c -0.561724,-3.312499 0.132206,-5.213865 0.223199,-5.267011 l 7.68e-4,-4.41e-4 7.68e-4,-4.42e-4 c 3.2e-4,-3.6e-5 0.0017,-1.47e-4 0.002,-1.17e-4 l 6.06e-4,1.62e-4 6.06e-4,1.63e-4 4.44e-4,7.66e-4 4.44e-4,7.67e-4 4.45e-4,7.66e-4 c 0.0012,0.0024 0.0023,0.0068 0.0025,0.01233 l 0.01014,-0.21481 0.01687,-0.15992 C 92.950148,44.457861 91.65462,44.042846 89.180389,42.328709 l -0.106086,-0.07439 -0.102247,-0.0766 c -5.817087,-4.387323 -4.097573,-13.353943 2.793905,-15.423455 4.166785,-1.354467 6.612408,-0.105483 6.201477,-0.113493 l 0.227418,0.0046 0.224867,0.02141 c 0.137922,0.0125 0.09093,0.0043 0.214484,0.01409 0.07391,-0.201645 0.157518,-0.420812 0.256346,-0.660934 C 93.427047,18.902533 85.834314,13.511163 77.070441,10.785315 Z m 29.573939,35.177956 c -0.002,0.009 -0.004,0.0138 -0.006,0.01599 l -7.7e-4,4.41e-4 -6.1e-4,-1.62e-4 -1.6e-4,6.04e-4 -7.7e-4,4.41e-4 c -9.4e-4,3.12e-4 -0.003,6.8e-4 -0.004,8.38e-4 l -6.1e-4,-1.62e-4 -1.6e-4,6.04e-4 -6e-4,-1.63e-4 -7.7e-4,4.42e-4 -1.6e-4,6.04e-4 -6.1e-4,-1.62e-4 -1.6e-4,6.04e-4 c -0.005,0.0057 -0.01,0.02644 -0.0137,0.104446 -0.005,0.04458 0.006,0.142893 0.003,0.193039 z"
               style="baseline-shift:baseline;display:inline;overflow:visible;vector-effect:none;fill:#ff0000;stroke:none;enable-background:accumulate;stop-color:#000000;stop-opacity:1"
               id="path69" /><radialGradient
               id="radialGradient4-6-6-3-5-7"
               cx="53.348999"
               cy="46.134998"
               r="69.389"
               gradientUnits="userSpaceOnUse"
               gradientTransform="translate(-101.89795,26.81525)"><stop
                 offset=".28"
                 stop-color="#81d4fa"
                 stop-opacity="0"
                 id="stop3-9-8-7-1-7" /><stop
                 offset=".964"
                 stop-color="#81d4fa"
                 stop-opacity=".9"
                 id="stop4-3-9-9-7-1" /></radialGradient><linearGradient
               id="linearGradient12"
               gradientUnits="userSpaceOnUse"
               x1="74.690002"
               y1="10.651"
               x2="35.942001"
               y2="111.007"><stop
                 offset="0"
                 stop-color="#673ab7"
                 id="stop5-3-0-8-4-1" /><stop
                 offset=".937"
                 stop-color="#673ab7"
                 stop-opacity="0"
                 id="stop6-8-6-6-1-5" /></linearGradient><linearGradient
               id="linearGradient23"
               gradientUnits="userSpaceOnUse"
               x1="80.877998"
               y1="24.934"
               x2="80.877998"
               y2="108.077"><stop
                 offset=".235"
                 stop-color="#1d44b3"
                 id="stop7-0-8-7-7-9" /><stop
                 offset=".884"
                 stop-color="#2044b3"
                 stop-opacity=".074"
                 id="stop8-56-7-0-1-7" /><stop
                 offset=".936"
                 stop-color="#2144b3"
                 stop-opacity="0"
                 id="stop9-64-9-4-1-7" /></linearGradient><linearGradient
               id="linearGradient24"
               gradientUnits="userSpaceOnUse"
               x1="-2575.355"
               y1="437.51901"
               x2="-2575.355"
               y2="471.20599"
               gradientTransform="matrix(-0.96584899,0.25910563,0.25910563,0.96584899,-2567.8605,261.19412)"><stop
                 offset=".227"
                 stop-color="#ffffff"
                 id="stop10-0-0-8-1-6" /><stop
                 offset="1"
                 stop-color="#ffffff"
                 stop-opacity="0"
                 id="stop11-0-3-4-7-7" /></linearGradient><g
               id="g180-3-8-0-3"
               transform="translate(0.12931997,-1.6201171)"
               style="fill:#000000;fill-opacity:0;stroke:#000000;stroke-width:9.62144;stroke-dasharray:none;stroke-opacity:1" /></g></g><g
           style="fill:#ffffff;fill-opacity:1"
           id="g226-6-1-2"
           transform="matrix(-1.1529476,0,0,1.1529476,1144.8748,756.44976)"><path
             d="m 12.305803,-9.4436953 c 2.545653,0.105063 5.083935,1.5558217 6.178789,4.2931539 l 0.06034,0.1542953 0.05095,0.156267 c 0.617955,1.8975305 0.782278,3.0708367 0.855198,3.88301452 0.09608,0.0177238 0.05862,0.014407 0.166192,0.033028 l 0.17559,0.0295774 0.174106,0.0428872 c -0.314533,-0.077742 1.802485,-0.52979392 4.698887,1.35168538 4.8252,2.9818521 4.305072,10.1602076 -1.019412,12.3140416 l -0.09348,0.03746 -0.09596,0.035 c -2.233704,0.8004 -3.304843,0.852086 -4.140461,1.007602 l -0.01978,0.125211 -0.03611,0.165633 c 0.0013,-0.0042 0.003,-0.0073 0.0045,-0.0089 l 4.94e-4,-4.93e-4 c 0,0 4.95e-4,-4.93e-4 4.95e-4,-4.93e-4 0,0 4.95e-4,-4.93e-4 4.95e-4,-4.93e-4 0,0 4.94e-4,0 4.94e-4,0 h 4.95e-4 c 2.33e-4,3.8e-5 0.0012,4.01e-4 0.0015,4.93e-4 0,0 4.94e-4,4.93e-4 4.94e-4,4.93e-4 0.05801,0.0472 0.20372,1.639437 -0.904164,4.056535 l -0.01978,0.04289 -0.02127,0.04338 C 15.733097,23.702025 7.8793324,23.600692 5.5957931,17.978462 l -0.05886,-0.14838 -0.050451,-0.152323 c -0.6425529,-1.924528 -0.786747,-3.105777 -0.851735,-3.919987 -0.058612,-0.01169 -0.031231,-0.0095 -0.093978,-0.0212 L 4.3884265,13.706998 4.2380621,13.670026 C 4.255815,13.674486 2.19127,14.016155 -0.6522423,12.238482 -5.5779437,9.1790022 -4.8047824,1.8778182 0.60755394,-0.1307703 2.6609172,-0.89251455 3.8805073,-1.1455207 4.6758005,-1.2497805 c 0.066427,-0.289998 0.1216634,-0.5079707 0.2220843,-1.0071091 0.051888,-1.2116159 0.3384865,-2.4190344 1.0921201,-3.7198461 0.8720143,-1.5051431 2.8530323,-3.1787095 5.2286241,-3.4294949 0.3598,-0.040102 0.72351,-0.052474 1.087174,-0.037465 z m -0.237417,5.0128697 c -0.1063,-0.00296 -0.213063,0.00246 -0.319525,0.015775 -1.291507,0.1230894 -1.8442236,1.5458598 -1.8256406,2.6821737 C 9.6282316,-0.18960385 9.7134372,1.664527 8.4942642,2.8284446 6.6899474,4.0698496 4.3478362,3.850125 2.3580129,4.5882976 0.98404544,5.0981948 0.75155561,7.1942289 2.0058437,7.9689899 3.0310234,8.6131804 4.3194779,8.5014306 5.4652135,8.7892687 6.9040587,9.0583216 8.774843,9.3842003 9.26043,11.008557 c 0.601077,1.633469 0.4517907,3.438093 0.998637,5.075968 0.593068,1.460174 2.862552,1.439652 3.530595,0.05176 0.429446,-0.936933 0.348584,-2.100086 0.557436,-3.039567 C 14.55796,11.698469 14.921573,9.9572128 16.456651,9.4606748 18.159905,8.7866241 20.045375,8.762142 21.759469,8.147933 23.124411,7.5957929 23.256001,5.5035851 22.001832,4.7529449 21.04943,4.1123314 19.833257,4.2998315 18.758611,4.034215 17.351532,3.790644 15.504074,3.5769456 14.912449,2.0471094 14.199668,0.35449173 14.372782,-1.5555057 13.810931,-3.2807592 13.52454,-3.9967868 12.812488,-4.4101047 12.068386,-4.4308256 Z m -2.6506669,16.5219136 -0.04501,0.246971 c 0.00811,-0.03875 0.036326,-0.111422 0.041548,-0.146408 0.012977,-0.06019 0.013368,-0.07702 0.010882,-0.08232 v -4.92e-4 h -4.946e-4 v -4.93e-4 l -4.947e-4,-4.93e-4 h -4.946e-4 v -4.93e-4 h -4.946e-4 c -6.837e-4,-3.13e-4 -0.00232,-10e-4 -0.00297,-0.0015 l -4.946e-4,-4.93e-4 v -4.93e-4 h -4.93e-4 l -4.947e-4,-4.93e-4 c -9.744e-4,-0.002 -0.00147,-0.0061 -9.892e-4,-0.01331 z"
             style="baseline-shift:baseline;display:inline;overflow:visible;vector-effect:none;fill:none;stroke:none;paint-order:stroke fill markers;enable-background:accumulate;stop-color:#000000;stop-opacity:1"
             id="path67" /></g></g><g
         id="g248-08-0"
         transform="matrix(1.3462275,0,0,1.3462275,-1168.1207,-653.30759)" /><g
         id="g96"
         transform="matrix(0.96138659,0,0,0.96463109,-1662.5883,531.46215)"><g
           id="g93"
           transform="matrix(1.4181634,-0.37999574,0.37999574,1.4181634,-239.28745,1081.326)"
           style="fill:#000000;fill-opacity:0;stroke:#000000;stroke-width:4.96337;stroke-dasharray:none;stroke-opacity:1"><g
             id="g92"
             transform="matrix(0.61903904,0,0,0.61903904,892.29577,9.0735992)"
             style="fill:#000000;fill-opacity:0;stroke:#000000;stroke-width:9.62144;stroke-dasharray:none;stroke-opacity:1"><radialGradient
               id="radialGradient82"
               cx="77.121002"
               cy="66.694"
               r="76.183998"
               gradientTransform="rotate(-3.714,-608.323,2.714)"
               gradientUnits="userSpaceOnUse"><stop
                 offset=".104"
                 stop-color="#ce93d8"
                 id="stop81" /><stop
                 offset="1"
                 stop-color="#ab47bc"
                 id="stop82" /></radialGradient><radialGradient
               id="radialGradient84"
               cx="53.348999"
               cy="46.134998"
               r="69.389"
               gradientUnits="userSpaceOnUse"
               gradientTransform="translate(-101.89795,26.81525)"><stop
                 offset=".28"
                 stop-color="#81d4fa"
                 stop-opacity="0"
                 id="stop83" /><stop
                 offset=".964"
                 stop-color="#81d4fa"
                 stop-opacity=".9"
                 id="stop84" /></radialGradient><linearGradient
               id="linearGradient86"
               gradientUnits="userSpaceOnUse"
               x1="74.690002"
               y1="10.651"
               x2="35.942001"
               y2="111.007"><stop
                 offset="0"
                 stop-color="#673ab7"
                 id="stop85" /><stop
                 offset=".937"
                 stop-color="#673ab7"
                 stop-opacity="0"
                 id="stop86" /></linearGradient><linearGradient
               id="linearGradient89"
               gradientUnits="userSpaceOnUse"
               x1="80.877998"
               y1="24.934"
               x2="80.877998"
               y2="108.077"><stop
                 offset=".235"
                 stop-color="#1d44b3"
                 id="stop87" /><stop
                 offset=".884"
                 stop-color="#2044b3"
                 stop-opacity=".074"
                 id="stop88" /><stop
                 offset=".936"
                 stop-color="#2144b3"
                 stop-opacity="0"
                 id="stop89" /></linearGradient><linearGradient
               id="linearGradient91"
               gradientUnits="userSpaceOnUse"
               x1="-2575.355"
               y1="437.51901"
               x2="-2575.355"
               y2="471.20599"
               gradientTransform="matrix(-0.96584899,0.25910563,0.25910563,0.96584899,-2567.8605,261.19412)"><stop
                 offset=".227"
                 stop-color="#ffffff"
                 id="stop90" /><stop
                 offset="1"
                 stop-color="#ffffff"
                 stop-opacity="0"
                 id="stop91" /></linearGradient><g
               id="g91"
               transform="translate(0.12931997,-1.6201171)"
               style="fill:#000000;fill-opacity:0;stroke:#000000;stroke-width:9.62144;stroke-dasharray:none;stroke-opacity:1" /></g></g></g><g
         id="g98"
         transform="translate(-0.8772007,156.14173)"><path
           id="path98"
           style="font-size:45.861px;font-family:'Neue Leights';-inkscape-font-specification:'Neue Leights';letter-spacing:0px;stroke-width:0.264583"
           d="m 465.5468,1322.3392 a 0.38628692,0.38628692 0 0 0 -0.3867,0.3867 v 32.1016 a 0.38628692,0.38628692 0 0 0 0.3867,0.3867 h 8.4844 a 0.38628692,0.38628692 0 0 0 0.3672,-0.2676 l 3.7636,-11.625 3.8477,11.627 a 0.38628692,0.38628692 0 0 0 0.3672,0.2656 h 8.4394 a 0.38628692,0.38628692 0 0 0 0.3867,-0.3867 v -32.1016 a 0.38628692,0.38628692 0 0 0 -0.3867,-0.3867 h -4.4941 a 0.38628692,0.38628692 0 0 0 -0.3867,0.3867 v 23.5059 h -1.3067 l -4.6816,-14.2715 a 0.38628692,0.38628692 0 0 0 -0.3672,-0.2656 h -2.7969 a 0.38628692,0.38628692 0 0 0 -0.3672,0.2656 l -4.6836,14.2715 h -1.3515 v -23.5059 a 0.38628692,0.38628692 0 0 0 -0.3867,-0.3867 z m 93.793,0 a 0.38628692,0.38628692 0 0 0 -0.3868,0.3867 v 11.252 c -0.4335,-0.6692 -0.988,-1.2509 -1.6894,-1.7129 v 0 c -1.1988,-0.8089 -2.6293,-1.2109 -4.25,-1.2109 -1.3993,0 -2.6867,0.3042 -3.8438,0.9141 -1.1248,0.5784 -2.0906,1.4172 -2.8867,2.5 -0.7954,1.0816 -1.4111,2.3793 -1.8496,3.8828 a 0.38628692,0.38628692 0 0 0 0,0.01 c -0.408,1.5061 -0.6094,3.1757 -0.6094,5.0078 0,1.8322 0.2014,3.5017 0.6094,5.0078 a 0.38628692,0.38628692 0 0 0 0,0.01 c 0.4385,1.5033 1.0542,2.8011 1.8496,3.8828 0.7951,1.0813 1.758,1.9325 2.8789,2.541 a 0.38628692,0.38628692 0 0 0 0.012,0.01 c 1.1568,0.5783 2.4418,0.8672 3.8399,0.8672 1.6199,0 3.1145,-0.3852 4.457,-1.1524 a 0.38628692,0.38628692 0 0 0 0.01,0 c 0.8364,-0.4978 1.4786,-1.1408 1.957,-1.8867 0.071,0.73 0.2821,1.374 0.7363,1.8281 a 0.38628692,0.38628692 0 0 0 0.01,0.01 c 0.5429,0.5067 1.2971,0.7461 2.1895,0.7461 h 5.5039 a 0.38628692,0.38628692 0 0 0 0.3867,-0.3867 v -4.5391 a 0.38628692,0.38628692 0 0 0 -0.4043,-0.3867 l -3.7676,0.1641 0.09,-27.3379 a 0.38628692,0.38628692 0 0 0 -0.3867,-0.3887 z m -5.3204,13.9805 c 1.648,0 2.7873,0.5705 3.5762,1.7539 a 0.38628692,0.38628692 0 0 0 0.01,0.01 c 0.8192,1.1581 1.2578,2.9132 1.2578,5.2812 0,2.3994 -0.4402,4.1874 -1.2617,5.377 -0.7871,1.1526 -1.9296,1.7109 -3.5801,1.7109 -1.6486,0 -2.8277,-0.5598 -3.6757,-1.7168 v 0 c -0.8481,-1.1894 -1.3008,-2.9716 -1.3008,-5.3672 0,-2.3977 0.4544,-4.1635 1.3008,-5.3203 0.8484,-1.1594 2.0278,-1.7226 3.6777,-1.7226 z m 66.34951,-12.0547 c -0.6452,0 -1.1987,0.1674 -1.5801,0.5488 -0.3814,0.3814 -0.5488,0.9349 -0.5488,1.5801 v 1.2383 c 0,0.6452 0.1674,1.1986 0.5488,1.58 0.3814,0.3814 0.9349,0.5489 1.5801,0.5489 h 1.2383 c 0.6316,0 1.1761,-0.1703 1.5488,-0.5528 0.3727,-0.3825 0.5352,-0.9325 0.5352,-1.5761 v -1.2383 c 0,-0.6436 -0.1625,-1.1937 -0.5352,-1.5762 -0.3727,-0.3825 -0.9172,-0.5527 -1.5488,-0.5527 z m -87.74591,6.7871 c -2.2946,0.2067 -0.2625,-0.3054 -2.8125,0.3828 -0.8613,0.2241 -1.6624,0.5745 -2.3985,1.0547 -0.7035,0.4482 -1.3127,0.9963 -1.8261,1.6367 -0.2134,0.2534 -0.3909,0.5295 -0.5606,0.8106 l -0.3184,-3.0782 a 0.38628692,0.38628692 0 0 0 -0.3847,-0.3476 h -3.9903 a 0.38628692,0.38628692 0 0 0 -0.3867,0.3867 v 22.9297 a 0.38628692,0.38628692 0 0 0 0.3867,0.3867 h 4.4493 a 0.38628692,0.38628692 0 0 0 0.3867,-0.3867 v -12.7481 c 0,-1.9421 0.4525,-3.3345 1.3047,-4.2422 0.8521,-0.9076 2.1375,-1.3789 3.9492,-1.3789 1.78,0 3.0412,0.47 3.8789,1.377 0.8377,0.907 1.2832,2.301 1.2832,4.2441 v 12.7481 a 0.38628692,0.38628692 0 0 0 0.3867,0.3867 h 4.4024 a 0.38628692,0.38628692 0 0 0 0.3867,-0.3867 v -14.3086 c 0,-3.0236 -0.7195,-5.3779 -2.207,-6.9981 -1.4491,-1.6423 -3.4609,-2.4687 -5.9297,-2.4687 z m 47.5781,0 c -3.3235,0 -5.9549,1.0884 -7.7734,3.2578 -1.8184,2.1387 -2.7032,5.1736 -2.7032,9.0527 0,3.8805 0.8856,6.9312 2.7032,9.0996 1.8194,2.1386 4.4493,3.209 7.7715,3.209 2.9167,0 5.2683,-0.8427 6.9687,-2.543 1.6988,-1.731 2.6153,-4.1776 2.7715,-7.2696 a 0.38628692,0.38628692 0 0 0 -0.3867,-0.4062 h -4.4942 a 0.38628692,0.38628692 0 0 0 -0.3847,0.3672 c -0.089,1.6707 -0.5228,2.8674 -1.25,3.6425 -0.7273,0.7752 -1.7706,1.1719 -3.2266,1.1719 -1.7443,0 -2.9863,-0.5793 -3.8633,-1.7676 -0.8244,-1.1168 -1.2634,-2.8194 -1.3437,-5.0253 h 14.5625 a 0.38628692,0.38628692 0 0 0 0.3867,-0.3868 v -2.5683 a 0.38628692,0.38628692 0 0 0 0,-0.02 c -0.1562,-3.0908 -1.0716,-5.5216 -2.7715,-7.2226 -1.6996,-1.7316 -4.0525,-2.5918 -6.9707,-2.5918 z m 0,5.0391 c 1.2221,0 2.1567,0.2888 2.8555,0.8437 0.5903,0.4688 0.9922,1.1919 1.2714,2.0977 h -8.6054 c 0.8548,-1.974 2.2678,-2.9414 4.4785,-2.9414 z m -82.3613,-4.5801 a 0.38628692,0.38628692 0 0 0 -0.3868,0.3867 v 4.4473 a 0.38628692,0.38628692 0 0 0 0.3868,0.3867 h 9.7031 v 2.3457 c -2.1791,0.4968 -4.0844,1.0065 -5.6113,1.5351 -1.5795,0.5269 -2.8744,1.1184 -3.8907,1.7852 -1.015,0.666 -1.7933,1.4223 -2.3183,2.2754 a 0.38628692,0.38628692 0 0 0 -0.01,0.01 c -0.4904,0.8501 -0.7811,1.8404 -0.8769,2.9571 -0.095,1.171 -7e-4,2.2595 0.289,3.2578 a 0.38628692,0.38628692 0 0 0 0,0.016 c 0.3214,0.9638 0.8104,1.8081 1.459,2.5215 0.6504,0.7155 1.4481,1.2694 2.3828,1.6562 a 0.38628692,0.38628692 0 0 0 0.01,0 c 0.9666,0.3866 2.0262,0.5781 3.1699,0.5781 1.5508,0 2.9056,-0.3188 4.043,-0.9688 0.803,-0.4685 1.4024,-1.1153 1.9043,-1.8379 0.1003,0.6263 0.2977,1.1903 0.7012,1.5937 a 0.38628692,0.38628692 0 0 0 0.01,0.01 c 0.5429,0.5067 1.2969,0.7461 2.1895,0.7461 h 5.4121 a 0.38628692,0.38628692 0 0 0 0.3867,-0.3867 v -4.586 a 0.38628692,0.38628692 0 0 0 -0.4043,-0.3867 l -3.5859,0.1641 v -14.3145 c 0,-1.3209 -0.3657,-2.3905 -1.127,-3.1191 -0.7286,-0.7267 -1.7778,-1.0742 -3.0664,-1.0742 z m 9.7031,12.5547 v 1.6347 c 0,1.6773 -0.4206,2.9471 -1.2344,3.8731 -0.8124,0.9245 -1.9029,1.3828 -3.3789,1.3828 -1.03,0 -1.7734,-0.2527 -2.2988,-0.7207 -0.4897,-0.4934 -0.6856,-1.1192 -0.5742,-2.0098 0.055,-0.4689 0.1911,-0.8451 0.3964,-1.1543 0.2276,-0.3278 0.6194,-0.6631 1.1914,-0.9785 0.6134,-0.3211 1.4342,-0.6527 2.459,-0.9844 a 0.38628692,0.38628692 0 0 0 0.01,0 c 0.8981,-0.3169 2.1027,-0.6686 3.4297,-1.0351 z m 84.9023,-12.5547 a 0.38628692,0.38628692 0 0 0 -0.3867,0.3867 v 4.5859 a 0.38628692,0.38628692 0 0 0 0.4004,0.3867 l 4.7363,-0.1699 v 13.293 h -4.7949 a 0.38628692,0.38628692 0 0 0 -0.3867,0.3867 v 4.4473 a 0.38628692,0.38628692 0 0 0 0.3867,0.3867 h 14.7656 a 0.38628692,0.38628692 0 0 0 0.3868,-0.3867 v -4.4473 a 0.38628692,0.38628692 0 0 0 -0.3868,-0.3867 h -4.7949 v -8.832 c 0,-1.4935 0.3744,-2.5521 1.0801,-3.2578 0.7396,-0.7397 1.8117,-1.125 3.3027,-1.125 h 3.2559 a 0.38628692,0.38628692 0 0 0 0.3867,-0.3868 v -4.4941 a 0.38628692,0.38628692 0 0 0 -0.3867,-0.3867 h -4.2188 c -1.7432,0 -3.207,0.7052 -4.3359,2.0019 v -1.6152 a 0.38628692,0.38628692 0 0 0 -0.3867,-0.3867 z m 22.14641,0 a 0.38628692,0.38628692 0 0 0 -0.3868,0.3867 v 4.5859 a 0.38628692,0.38628692 0 0 0 0.4024,0.3867 l 4.2754,-0.1679 v 13.291 h -4.8418 a 0.38628692,0.38628692 0 0 0 -0.3867,0.3867 v 4.4473 a 0.38628692,0.38628692 0 0 0 0.3867,0.3867 h 14.8125 a 0.38628692,0.38628692 0 0 0 0.3867,-0.3867 v -4.4473 a 0.38628692,0.38628692 0 0 0 -0.3867,-0.3867 h -4.7949 v -14.2891 c 0,-1.3331 -0.339,-2.4034 -1.0645,-3.1289 -0.7255,-0.7255 -1.7957,-1.0644 -3.1289,-1.0644 z m 19.05549,0 a 0.38628692,0.38628692 0 0 0 -0.3867,0.3867 v 4.4473 a 0.38628692,0.38628692 0 0 0 0.3867,0.3867 h 9.7031 v 2.3457 c -2.179,0.4968 -4.0843,1.0065 -5.6113,1.5351 -1.5795,0.5269 -2.8727,1.1185 -3.8887,1.7852 -1.0148,0.6659 -1.795,1.4219 -2.3203,2.2754 a 0.38628692,0.38628692 0 0 0 -0.01,0.01 c -0.4907,0.8505 -0.7794,1.8408 -0.875,2.9571 -0.095,1.171 -7e-4,2.2595 0.289,3.2578 a 0.38628692,0.38628692 0 0 0 0,0.016 c 0.3211,0.9634 0.8082,1.8078 1.4571,2.5215 0.6507,0.7158 1.4503,1.2695 2.3847,1.6562 a 0.38628692,0.38628692 0 0 0 0.01,0 c 0.9664,0.3866 2.0243,0.5781 3.1679,0.5781 1.5508,0 2.9074,-0.3188 4.045,-0.9688 0.8029,-0.4684 1.4024,-1.1154 1.9043,-1.8379 0.1,0.6261 0.2954,1.19 0.6992,1.5937 a 0.38628692,0.38628692 0 0 0 0.01,0.01 c 0.5429,0.5067 1.297,0.7461 2.1894,0.7461 h 5.4121 a 0.38628692,0.38628692 0 0 0 0.3867,-0.3867 v -4.586 a 0.38628692,0.38628692 0 0 0 -0.4043,-0.3867 l -3.5859,0.1641 v -14.3145 c 0,-1.3205 -0.3635,-2.3903 -1.125,-3.1191 -0.7289,-0.7269 -1.7796,-1.0742 -3.0684,-1.0742 z m 9.7031,12.5547 v 1.6347 c 0,1.6773 -0.4207,2.9471 -1.2344,3.8731 -0.8127,0.9248 -1.901,1.3828 -3.3769,1.3828 -1.0301,0 -1.7734,-0.2527 -2.2988,-0.7207 -0.49,-0.4937 -0.6876,-1.1197 -0.5762,-2.0098 0.055,-0.4688 0.1911,-0.845 0.3965,-1.1543 0.2274,-0.3277 0.6194,-0.6631 1.1914,-0.9785 0.613,-0.3209 1.4358,-0.6527 2.4609,-0.9844 a 0.38628692,0.38628692 0 0 0 0.01,0 c 0.8981,-0.3169 2.1013,-0.6687 3.4277,-1.0351 z" /><path
           id="path165"
           style="font-size:45.861px;font-family:'Neue Leights';-inkscape-font-specification:'Neue Leights';letter-spacing:0px;fill:#ffffff;fill-opacity:1;stroke-width:0.264583"
           d="m 465.5468,1401.4978 a 0.38628692,0.38628692 0 0 0 -0.3867,0.3867 v 32.1016 a 0.38628692,0.38628692 0 0 0 0.3867,0.3867 h 8.4844 a 0.38628692,0.38628692 0 0 0 0.3672,-0.2676 l 3.7636,-11.625 3.8477,11.627 a 0.38628692,0.38628692 0 0 0 0.3672,0.2656 h 8.4394 a 0.38628692,0.38628692 0 0 0 0.3867,-0.3867 v -32.1016 a 0.38628692,0.38628692 0 0 0 -0.3867,-0.3867 h -4.4941 a 0.38628692,0.38628692 0 0 0 -0.3867,0.3867 v 23.5059 h -1.3067 l -4.6816,-14.2715 a 0.38628692,0.38628692 0 0 0 -0.3672,-0.2656 h -2.7969 a 0.38628692,0.38628692 0 0 0 -0.3672,0.2656 l -4.6836,14.2715 h -1.3515 v -23.5059 a 0.38628692,0.38628692 0 0 0 -0.3867,-0.3867 z m 93.793,0 a 0.38628692,0.38628692 0 0 0 -0.3868,0.3867 v 11.252 c -0.4335,-0.6692 -0.988,-1.2509 -1.6894,-1.7129 v 0 c -1.1988,-0.8089 -2.6293,-1.2109 -4.25,-1.2109 -1.3993,0 -2.6867,0.3042 -3.8438,0.9141 -1.1248,0.5784 -2.0906,1.4172 -2.8867,2.5 -0.7954,1.0816 -1.4111,2.3793 -1.8496,3.8828 a 0.38628692,0.38628692 0 0 0 0,0.01 c -0.408,1.5061 -0.6094,3.1757 -0.6094,5.0078 0,1.8322 0.2014,3.5017 0.6094,5.0078 a 0.38628692,0.38628692 0 0 0 0,0.01 c 0.4385,1.5033 1.0542,2.8011 1.8496,3.8828 0.7951,1.0813 1.758,1.9325 2.8789,2.541 a 0.38628692,0.38628692 0 0 0 0.012,0.01 c 1.1568,0.5783 2.4418,0.8672 3.8399,0.8672 1.6199,0 3.1145,-0.3852 4.457,-1.1524 a 0.38628692,0.38628692 0 0 0 0.01,0 c 0.8364,-0.4978 1.4786,-1.1408 1.957,-1.8867 0.071,0.73 0.2821,1.374 0.7363,1.8281 a 0.38628692,0.38628692 0 0 0 0.01,0.01 c 0.5429,0.5067 1.2971,0.7461 2.1895,0.7461 h 5.5039 a 0.38628692,0.38628692 0 0 0 0.3867,-0.3867 v -4.5391 a 0.38628692,0.38628692 0 0 0 -0.4043,-0.3867 l -3.7676,0.1641 0.09,-27.3379 a 0.38628692,0.38628692 0 0 0 -0.3867,-0.3887 z m -5.3204,13.9805 c 1.648,0 2.7873,0.5705 3.5762,1.7539 a 0.38628692,0.38628692 0 0 0 0.01,0.01 c 0.8192,1.1581 1.2578,2.9132 1.2578,5.2812 0,2.3994 -0.4402,4.1874 -1.2617,5.377 -0.7871,1.1526 -1.9296,1.7109 -3.5801,1.7109 -1.6486,0 -2.8277,-0.5598 -3.6757,-1.7168 v 0 c -0.8481,-1.1894 -1.3008,-2.9716 -1.3008,-5.3672 0,-2.3977 0.4544,-4.1635 1.3008,-5.3203 0.8484,-1.1594 2.0278,-1.7226 3.6777,-1.7226 z m 66.34951,-12.0547 c -0.6452,0 -1.1987,0.1674 -1.5801,0.5488 -0.3814,0.3814 -0.5488,0.9349 -0.5488,1.5801 v 1.2383 c 0,0.6452 0.1674,1.1986 0.5488,1.58 0.3814,0.3814 0.9349,0.5489 1.5801,0.5489 h 1.2383 c 0.6316,0 1.1761,-0.1703 1.5488,-0.5528 0.3727,-0.3825 0.5352,-0.9325 0.5352,-1.5761 v -1.2383 c 0,-0.6436 -0.1625,-1.1937 -0.5352,-1.5762 -0.3727,-0.3825 -0.9172,-0.5527 -1.5488,-0.5527 z m -87.74591,6.7871 c -2.2946,0.2067 -0.2625,-0.3054 -2.8125,0.3828 -0.8613,0.2241 -1.6624,0.5745 -2.3985,1.0547 -0.7035,0.4482 -1.3127,0.9963 -1.8261,1.6367 -0.2134,0.2534 -0.3909,0.5295 -0.5606,0.8106 l -0.3184,-3.0782 a 0.38628692,0.38628692 0 0 0 -0.3847,-0.3476 h -3.9903 a 0.38628692,0.38628692 0 0 0 -0.3867,0.3867 v 22.9297 a 0.38628692,0.38628692 0 0 0 0.3867,0.3867 h 4.4493 a 0.38628692,0.38628692 0 0 0 0.3867,-0.3867 v -12.7481 c 0,-1.9421 0.4525,-3.3345 1.3047,-4.2422 0.8521,-0.9076 2.1375,-1.3789 3.9492,-1.3789 1.78,0 3.0412,0.47 3.8789,1.377 0.8377,0.907 1.2832,2.301 1.2832,4.2441 v 12.7481 a 0.38628692,0.38628692 0 0 0 0.3867,0.3867 h 4.4024 a 0.38628692,0.38628692 0 0 0 0.3867,-0.3867 v -14.3086 c 0,-3.0236 -0.7195,-5.3779 -2.207,-6.9981 -1.4491,-1.6423 -3.4609,-2.4687 -5.9297,-2.4687 z m 47.5781,0 c -3.3235,0 -5.9549,1.0884 -7.7734,3.2578 -1.8184,2.1387 -2.7032,5.1736 -2.7032,9.0527 0,3.8805 0.8856,6.9312 2.7032,9.0996 1.8194,2.1386 4.4493,3.209 7.7715,3.209 2.9167,0 5.2683,-0.8427 6.9687,-2.543 1.6988,-1.731 2.6153,-4.1776 2.7715,-7.2696 a 0.38628692,0.38628692 0 0 0 -0.3867,-0.4062 h -4.4942 a 0.38628692,0.38628692 0 0 0 -0.3847,0.3672 c -0.089,1.6707 -0.5228,2.8674 -1.25,3.6425 -0.7273,0.7752 -1.7706,1.1719 -3.2266,1.1719 -1.7443,0 -2.9863,-0.5793 -3.8633,-1.7676 -0.8244,-1.1168 -1.2634,-2.8194 -1.3437,-5.0253 h 14.5625 a 0.38628692,0.38628692 0 0 0 0.3867,-0.3868 v -2.5683 a 0.38628692,0.38628692 0 0 0 0,-0.02 c -0.1562,-3.0908 -1.0716,-5.5216 -2.7715,-7.2226 -1.6996,-1.7316 -4.0525,-2.5918 -6.9707,-2.5918 z m 0,5.0391 c 1.2221,0 2.1567,0.2888 2.8555,0.8437 0.5903,0.4688 0.9922,1.1919 1.2714,2.0977 h -8.6054 c 0.8548,-1.974 2.2678,-2.9414 4.4785,-2.9414 z m -82.3613,-4.5801 a 0.38628692,0.38628692 0 0 0 -0.3868,0.3867 v 4.4473 a 0.38628692,0.38628692 0 0 0 0.3868,0.3867 h 9.7031 v 2.3457 c -2.1791,0.4968 -4.0844,1.0065 -5.6113,1.5351 -1.5795,0.5269 -2.8744,1.1184 -3.8907,1.7852 -1.015,0.666 -1.7933,1.4223 -2.3183,2.2754 a 0.38628692,0.38628692 0 0 0 -0.01,0.01 c -0.4904,0.8501 -0.7811,1.8404 -0.8769,2.9571 -0.095,1.171 -7e-4,2.2595 0.289,3.2578 a 0.38628692,0.38628692 0 0 0 0,0.016 c 0.3214,0.9638 0.8104,1.8081 1.459,2.5215 0.6504,0.7155 1.4481,1.2694 2.3828,1.6562 a 0.38628692,0.38628692 0 0 0 0.01,0 c 0.9666,0.3866 2.0262,0.5781 3.1699,0.5781 1.5508,0 2.9056,-0.3188 4.043,-0.9688 0.803,-0.4685 1.4024,-1.1153 1.9043,-1.8379 0.1003,0.6263 0.2977,1.1903 0.7012,1.5937 a 0.38628692,0.38628692 0 0 0 0.01,0.01 c 0.5429,0.5067 1.2969,0.7461 2.1895,0.7461 h 5.4121 a 0.38628692,0.38628692 0 0 0 0.3867,-0.3867 v -4.586 a 0.38628692,0.38628692 0 0 0 -0.4043,-0.3867 l -3.5859,0.1641 v -14.3145 c 0,-1.3209 -0.3657,-2.3905 -1.127,-3.1191 -0.7286,-0.7267 -1.7778,-1.0742 -3.0664,-1.0742 z m 9.7031,12.5547 v 1.6347 c 0,1.6773 -0.4206,2.9471 -1.2344,3.8731 -0.8124,0.9245 -1.9029,1.3828 -3.3789,1.3828 -1.03,0 -1.7734,-0.2527 -2.2988,-0.7207 -0.4897,-0.4934 -0.6856,-1.1192 -0.5742,-2.0098 0.055,-0.4689 0.1911,-0.8451 0.3964,-1.1543 0.2276,-0.3278 0.6194,-0.6631 1.1914,-0.9785 0.6134,-0.3211 1.4342,-0.6527 2.459,-0.9844 a 0.38628692,0.38628692 0 0 0 0.01,0 c 0.8981,-0.3169 2.1027,-0.6686 3.4297,-1.0351 z m 84.9023,-12.5547 a 0.38628692,0.38628692 0 0 0 -0.3867,0.3867 v 4.5859 a 0.38628692,0.38628692 0 0 0 0.4004,0.3867 l 4.7363,-0.1699 v 13.293 h -4.7949 a 0.38628692,0.38628692 0 0 0 -0.3867,0.3867 v 4.4473 a 0.38628692,0.38628692 0 0 0 0.3867,0.3867 h 14.7656 a 0.38628692,0.38628692 0 0 0 0.3868,-0.3867 v -4.4473 a 0.38628692,0.38628692 0 0 0 -0.3868,-0.3867 h -4.7949 v -8.832 c 0,-1.4935 0.3744,-2.5521 1.0801,-3.2578 0.7396,-0.7397 1.8117,-1.125 3.3027,-1.125 h 3.2559 a 0.38628692,0.38628692 0 0 0 0.3867,-0.3868 v -4.4941 a 0.38628692,0.38628692 0 0 0 -0.3867,-0.3867 h -4.2188 c -1.7432,0 -3.207,0.7052 -4.3359,2.0019 v -1.6152 a 0.38628692,0.38628692 0 0 0 -0.3867,-0.3867 z m 22.14641,0 a 0.38628692,0.38628692 0 0 0 -0.3868,0.3867 v 4.5859 a 0.38628692,0.38628692 0 0 0 0.4024,0.3867 l 4.2754,-0.1679 v 13.291 h -4.8418 a 0.38628692,0.38628692 0 0 0 -0.3867,0.3867 v 4.4473 a 0.38628692,0.38628692 0 0 0 0.3867,0.3867 h 14.8125 a 0.38628692,0.38628692 0 0 0 0.3867,-0.3867 v -4.4473 a 0.38628692,0.38628692 0 0 0 -0.3867,-0.3867 h -4.7949 v -14.2891 c 0,-1.3331 -0.339,-2.4034 -1.0645,-3.1289 -0.7255,-0.7255 -1.7957,-1.0644 -3.1289,-1.0644 z m 19.05549,0 a 0.38628692,0.38628692 0 0 0 -0.3867,0.3867 v 4.4473 a 0.38628692,0.38628692 0 0 0 0.3867,0.3867 h 9.7031 v 2.3457 c -2.179,0.4968 -4.0843,1.0065 -5.6113,1.5351 -1.5795,0.5269 -2.8727,1.1185 -3.8887,1.7852 -1.0148,0.6659 -1.795,1.4219 -2.3203,2.2754 a 0.38628692,0.38628692 0 0 0 -0.01,0.01 c -0.4907,0.8505 -0.7794,1.8408 -0.875,2.9571 -0.095,1.171 -7e-4,2.2595 0.289,3.2578 a 0.38628692,0.38628692 0 0 0 0,0.016 c 0.3211,0.9634 0.8082,1.8078 1.4571,2.5215 0.6507,0.7158 1.4503,1.2695 2.3847,1.6562 a 0.38628692,0.38628692 0 0 0 0.01,0 c 0.9664,0.3866 2.0243,0.5781 3.1679,0.5781 1.5508,0 2.9074,-0.3188 4.045,-0.9688 0.8029,-0.4684 1.4024,-1.1154 1.9043,-1.8379 0.1,0.6261 0.2954,1.19 0.6992,1.5937 a 0.38628692,0.38628692 0 0 0 0.01,0.01 c 0.5429,0.5067 1.297,0.7461 2.1894,0.7461 h 5.4121 a 0.38628692,0.38628692 0 0 0 0.3867,-0.3867 v -4.586 a 0.38628692,0.38628692 0 0 0 -0.4043,-0.3867 l -3.5859,0.1641 v -14.3145 c 0,-1.3205 -0.3635,-2.3903 -1.125,-3.1191 -0.7289,-0.7269 -1.7796,-1.0742 -3.0684,-1.0742 z m 9.7031,12.5547 v 1.6347 c 0,1.6773 -0.4207,2.9471 -1.2344,3.8731 -0.8127,0.9248 -1.901,1.3828 -3.3769,1.3828 -1.0301,0 -1.7734,-0.2527 -2.2988,-0.7207 -0.49,-0.4937 -0.6876,-1.1197 -0.5762,-2.0098 0.055,-0.4688 0.1911,-0.845 0.3965,-1.1543 0.2274,-0.3277 0.6194,-0.6631 1.1914,-0.9785 0.613,-0.3209 1.4358,-0.6527 2.4609,-0.9844 a 0.38628692,0.38628692 0 0 0 0.01,0 c 0.8981,-0.3169 2.1013,-0.6687 3.4277,-1.0351 z" /></g><g
         id="g145"
         transform="translate(1.1228169,74.854735)"
         style="fill:#ffffff;fill-opacity:1"><path
           id="path145"
           style="font-size:45.861px;font-family:'Neue Leights';-inkscape-font-specification:'Neue Leights';letter-spacing:0px;fill:#ffffff;fill-opacity:1;stroke-width:0.264583"
           d="m 464.98539,1322.9006 c -0.21366,-2e-4 -0.38693,0.173 -0.3867,0.3867 v 32.1016 c -2.3e-4,0.2137 0.17304,0.3869 0.3867,0.3867 h 8.4844 c 0.16747,-2e-4 0.31575,-0.1082 0.3672,-0.2676 l 3.7636,-11.625 3.8477,11.627 c 0.0522,0.1586 0.20027,0.2657 0.3672,0.2656 h 8.4394 c 0.21366,2e-4 0.38693,-0.173 0.3867,-0.3867 v -32.1016 c 2.3e-4,-0.2137 -0.17304,-0.3869 -0.3867,-0.3867 h -4.4941 c -0.21366,-2e-4 -0.38693,0.173 -0.3867,0.3867 v 23.5059 h -1.3067 l -4.6816,-14.2715 c -0.0521,-0.1586 -0.20027,-0.2657 -0.3672,-0.2656 h -2.7969 c -0.16693,-10e-5 -0.31505,0.107 -0.3672,0.2656 l -4.6836,14.2715 h -1.3515 v -23.5059 c 2.3e-4,-0.2137 -0.17304,-0.3869 -0.3867,-0.3867 z m 93.793,0 c -0.2137,-3e-4 -0.38703,0.173 -0.3868,0.3867 v 11.252 c -0.4335,-0.6692 -0.988,-1.2509 -1.6894,-1.7129 v 0 c -1.1988,-0.8089 -2.6293,-1.2109 -4.25,-1.2109 -1.3993,0 -2.6867,0.3042 -3.8438,0.9141 -1.1248,0.5784 -2.0906,1.4172 -2.8867,2.5 -0.7954,1.0816 -1.4111,2.3793 -1.8496,3.8828 -4e-5,0 -4e-5,0.01 0,0.01 -0.408,1.5061 -0.6094,3.1757 -0.6094,5.0078 0,1.8322 0.2014,3.5017 0.6094,5.0078 -4e-5,0 -4e-5,0.01 0,0.01 0.4385,1.5033 1.0542,2.8011 1.8496,3.8828 0.7951,1.0813 1.758,1.9325 2.8789,2.541 0.004,0 0.008,0.01 0.012,0.01 1.1568,0.5783 2.4418,0.8672 3.8399,0.8672 1.6199,0 3.1145,-0.3852 4.457,-1.1524 0.003,0 0.007,0 0.01,0 0.8364,-0.4978 1.4786,-1.1408 1.957,-1.8867 0.071,0.73 0.2821,1.374 0.7363,1.8281 0.003,0 0.007,0.01 0.01,0.01 0.5429,0.5067 1.2971,0.7461 2.1895,0.7461 h 5.5039 c 0.21366,2e-4 0.38693,-0.173 0.3867,-0.3867 v -4.5391 c 4.8e-4,-0.2207 -0.1838,-0.397 -0.4043,-0.3867 l -3.7676,0.1641 0.09,-27.3379 c 10e-4,-0.2144 -0.17225,-0.3889 -0.3867,-0.3887 z m -5.3204,13.9805 c 1.648,0 2.7873,0.5705 3.5762,1.7539 0.003,0 0.007,0.01 0.01,0.01 0.8192,1.1581 1.2578,2.9132 1.2578,5.2812 0,2.3994 -0.4402,4.1874 -1.2617,5.377 -0.7871,1.1526 -1.9296,1.7109 -3.5801,1.7109 -1.6486,0 -2.8277,-0.5598 -3.6757,-1.7168 v 0 c -0.8481,-1.1894 -1.3008,-2.9716 -1.3008,-5.3672 0,-2.3977 0.4544,-4.1635 1.3008,-5.3203 0.8484,-1.1594 2.0278,-1.7226 3.6777,-1.7226 z m 66.34951,-12.0547 c -0.6452,0 -1.1987,0.1674 -1.5801,0.5488 -0.3814,0.3814 -0.5488,0.9349 -0.5488,1.5801 v 1.2383 c 0,0.6452 0.1674,1.1986 0.5488,1.58 0.3814,0.3814 0.9349,0.5489 1.5801,0.5489 h 1.2383 c 0.6316,0 1.1761,-0.1703 1.5488,-0.5528 0.3727,-0.3825 0.5352,-0.9325 0.5352,-1.5761 v -1.2383 c 0,-0.6436 -0.1625,-1.1937 -0.5352,-1.5762 -0.3727,-0.3825 -0.9172,-0.5527 -1.5488,-0.5527 z m -92.95691,8.2246 c -0.7035,0.4482 -1.3127,0.9963 -1.8261,1.6367 -0.2134,0.2534 -0.3909,0.5295 -0.5606,0.8106 l -0.3184,-3.0782 c -0.0199,-0.1975 -0.1862,-0.3478 -0.3847,-0.3476 h -3.9903 c -0.21366,-2e-4 -0.38693,0.173 -0.3867,0.3867 v 22.9297 c -2.3e-4,0.2137 0.17304,0.3869 0.3867,0.3867 h 4.4493 c 0.21366,2e-4 0.38693,-0.173 0.3867,-0.3867 v -12.7481 c 0,-1.9421 0.4525,-3.3345 1.3047,-4.2422 0.8521,-0.9076 2.1375,-1.3789 3.9492,-1.3789 1.78,0 3.0412,0.47 3.8789,1.377 0.8377,0.907 1.2832,2.301 1.2832,4.2441 v 12.7481 c -2.3e-4,0.2137 0.17304,0.3869 0.3867,0.3867 h 4.4024 c 0.21366,2e-4 0.38693,-0.173 0.3867,-0.3867 v -14.3086 c 0,-3.0236 -0.7195,-5.3779 -2.207,-6.9981 -3.01098,-3.4124 -8.34368,-2.8559 -11.1407,-1.0312 z m 52.7891,-1.4375 c -3.3235,0 -5.9549,1.0884 -7.7734,3.2578 -1.8184,2.1387 -2.7032,5.1736 -2.7032,9.0527 0,3.8805 0.8856,6.9312 2.7032,9.0996 1.8194,2.1386 4.4493,3.209 7.7715,3.209 2.9167,0 5.2683,-0.8427 6.9687,-2.543 1.6988,-1.731 2.6153,-4.1776 2.7715,-7.2696 0.0114,-0.2212 -0.16517,-0.4067 -0.3867,-0.4062 h -4.4942 c -0.20549,6e-4 -0.37455,0.162 -0.3847,0.3672 -0.089,1.6707 -0.5228,2.8674 -1.25,3.6425 -0.7273,0.7752 -1.7706,1.1719 -3.2266,1.1719 -1.7443,0 -2.9863,-0.5793 -3.8633,-1.7676 -0.8244,-1.1168 -1.2634,-2.8194 -1.3437,-5.0253 h 14.5625 c 0.2137,2e-4 0.38698,-0.1731 0.3867,-0.3868 v -2.5683 c 1.7e-4,-0.01 1.7e-4,-0.013 0,-0.02 -0.1562,-3.0908 -1.0716,-5.5216 -2.7715,-7.2226 -1.6996,-1.7316 -4.0525,-2.5918 -6.9707,-2.5918 z m 0,5.0391 c 1.2221,0 2.1567,0.2888 2.8555,0.8437 0.5903,0.4688 0.9922,1.1919 1.2714,2.0977 h -8.6054 c 0.8548,-1.974 2.2678,-2.9414 4.4785,-2.9414 z m -82.3613,-4.5801 c -0.2137,-3e-4 -0.38703,0.173 -0.3868,0.3867 v 4.4473 c -2.3e-4,0.2137 0.1731,0.387 0.3868,0.3867 h 9.7031 v 2.3457 c -2.1791,0.4968 -4.0844,1.0065 -5.6113,1.5351 -1.5795,0.5269 -2.8744,1.1184 -3.8907,1.7852 -1.015,0.666 -1.7933,1.4223 -2.3183,2.2754 -0.003,0 -0.007,0.01 -0.01,0.01 -0.4904,0.8501 -0.7811,1.8404 -0.8769,2.9571 -0.095,1.171 -7e-4,2.2595 0.289,3.2578 -1.1e-4,0.01 -1.1e-4,0.011 0,0.016 0.3214,0.9638 0.8104,1.8081 1.459,2.5215 0.6504,0.7155 1.4481,1.2694 2.3828,1.6562 0.003,0 0.007,0 0.01,0 0.9666,0.3866 2.0262,0.5781 3.1699,0.5781 1.5508,0 2.9056,-0.3188 4.043,-0.9688 0.803,-0.4685 1.4024,-1.1153 1.9043,-1.8379 0.1003,0.6263 0.2977,1.1903 0.7012,1.5937 0.003,0 0.007,0.01 0.01,0.01 0.5429,0.5067 1.2969,0.7461 2.1895,0.7461 h 5.4121 c 0.21366,2e-4 0.38693,-0.173 0.3867,-0.3867 v -4.586 c 4.8e-4,-0.2207 -0.1838,-0.397 -0.4043,-0.3867 l -3.5859,0.1641 v -14.3145 c 0,-1.3209 -0.3657,-2.3905 -1.127,-3.1191 -0.7286,-0.7267 -1.7778,-1.0742 -3.0664,-1.0742 z m 9.7031,12.5547 v 1.6347 c 0,1.6773 -0.4206,2.9471 -1.2344,3.8731 -0.8124,0.9245 -1.9029,1.3828 -3.3789,1.3828 -1.03,0 -1.7734,-0.2527 -2.2988,-0.7207 -0.4897,-0.4934 -0.6856,-1.1192 -0.5742,-2.0098 0.055,-0.4689 0.1911,-0.8451 0.3964,-1.1543 0.2276,-0.3278 0.6194,-0.6631 1.1914,-0.9785 0.6134,-0.3211 1.4342,-0.6527 2.459,-0.9844 0.003,0 0.007,0 0.01,0 0.8981,-0.3169 2.1027,-0.6686 3.4297,-1.0351 z m 84.9023,-12.5547 c -0.21366,-2e-4 -0.38693,0.173 -0.3867,0.3867 v 4.5859 c -3.8e-4,0.2191 0.18141,0.3947 0.4004,0.3867 l 4.7363,-0.1699 v 13.293 h -4.7949 c -0.21366,-2e-4 -0.38693,0.173 -0.3867,0.3867 v 4.4473 c -2.3e-4,0.2137 0.17304,0.3869 0.3867,0.3867 h 14.7656 c 0.2137,3e-4 0.38703,-0.173 0.3868,-0.3867 v -4.4473 c 2.3e-4,-0.2137 -0.1731,-0.387 -0.3868,-0.3867 h -4.7949 v -8.832 c 0,-1.4935 0.3744,-2.5521 1.0801,-3.2578 0.7396,-0.7397 1.8117,-1.125 3.3027,-1.125 h 3.2559 c 0.2137,2e-4 0.38698,-0.1731 0.3867,-0.3868 v -4.4941 c 2.3e-4,-0.2137 -0.17304,-0.3869 -0.3867,-0.3867 h -4.2188 c -1.7432,0 -3.207,0.7052 -4.3359,2.0019 v -1.6152 c 2.3e-4,-0.2137 -0.17304,-0.3869 -0.3867,-0.3867 z m 22.14641,0 c -0.2137,-3e-4 -0.38703,0.173 -0.3868,0.3867 v 4.5859 c -4.3e-4,0.22 0.18263,0.3959 0.4024,0.3867 l 4.2754,-0.1679 v 13.291 h -4.8418 c -0.21366,-2e-4 -0.38693,0.173 -0.3867,0.3867 v 4.4473 c -2.3e-4,0.2137 0.17304,0.3869 0.3867,0.3867 h 14.8125 c 0.21366,2e-4 0.38693,-0.173 0.3867,-0.3867 v -4.4473 c 2.3e-4,-0.2137 -0.17304,-0.3869 -0.3867,-0.3867 h -4.7949 v -14.2891 c 0,-1.3331 -0.339,-2.4034 -1.0645,-3.1289 -0.7255,-0.7255 -1.7957,-1.0644 -3.1289,-1.0644 z m 19.05549,0 c -0.21366,-2e-4 -0.38693,0.173 -0.3867,0.3867 v 4.4473 c -2.3e-4,0.2137 0.17304,0.3869 0.3867,0.3867 h 9.7031 v 2.3457 c -2.179,0.4968 -4.0843,1.0065 -5.6113,1.5351 -1.5795,0.5269 -2.8727,1.1185 -3.8887,1.7852 -1.0148,0.6659 -1.795,1.4219 -2.3203,2.2754 -0.003,0 -0.007,0.01 -0.01,0.01 -0.4907,0.8505 -0.7794,1.8408 -0.875,2.9571 -0.095,1.171 -7e-4,2.2595 0.289,3.2578 -1.1e-4,0.01 -1.1e-4,0.011 0,0.016 0.3211,0.9634 0.8082,1.8078 1.4571,2.5215 0.6507,0.7158 1.4503,1.2695 2.3847,1.6562 0.003,0 0.007,0 0.01,0 0.9664,0.3866 2.0243,0.5781 3.1679,0.5781 1.5508,0 2.9074,-0.3188 4.045,-0.9688 0.8029,-0.4684 1.4024,-1.1154 1.9043,-1.8379 0.1,0.6261 0.2954,1.19 0.6992,1.5937 0.003,0 0.007,0.01 0.01,0.01 0.5429,0.5067 1.297,0.7461 2.1894,0.7461 h 5.4121 c 0.21366,2e-4 0.38693,-0.173 0.3867,-0.3867 v -4.586 c 4.8e-4,-0.2207 -0.1838,-0.397 -0.4043,-0.3867 l -3.5859,0.1641 v -14.3145 c 0,-1.3205 -0.3635,-2.3903 -1.125,-3.1191 -0.7289,-0.7269 -1.7796,-1.0742 -3.0684,-1.0742 z m 9.7031,12.5547 v 1.6347 c 0,1.6773 -0.4207,2.9471 -1.2344,3.8731 -0.8127,0.9248 -1.901,1.3828 -3.3769,1.3828 -1.0301,0 -1.7734,-0.2527 -2.2988,-0.7207 -0.49,-0.4937 -0.6876,-1.1197 -0.5762,-2.0098 0.055,-0.4688 0.1911,-0.845 0.3965,-1.1543 0.2274,-0.3277 0.6194,-0.6631 1.1914,-0.9785 0.613,-0.3209 1.4358,-0.6527 2.4609,-0.9844 0.003,0 0.007,0 0.01,0 0.8981,-0.3169 2.1013,-0.6687 3.4277,-1.0351 z" /></g></g><path
       id="path66"
       style="baseline-shift:baseline;display:inline;overflow:visible;fill:url(#radialGradient61);fill-opacity:1;stroke:none;stroke-width:0;stroke-dasharray:none;paint-order:stroke fill markers;enable-background:accumulate;stop-color:#000000"
       d="m 274.26509,718.80953 c 0.84395,0.12023 1.00429,1.11569 1.03257,1.81618 0.19723,1.19151 0.20001,2.76164 1.32216,3.55938 1.39223,0.91622 3.17313,0.68826 4.6499,1.35705 0.72063,0.48321 0.50003,1.7541 -0.37806,1.91011 -1.34361,0.36541 -2.82193,0.31475 -4.07273,0.9996 -1.12204,0.58752 -1.27342,1.97838 -1.42774,3.1021 -0.13878,0.73 -0.0838,1.5774 -0.54733,2.19097 -0.62839,0.60556 -1.80555,0.16772 -1.857,-0.72055 -0.25682,-1.37637 -0.17113,-3.02424 -1.18354,-4.15121 -0.84628,-0.77979 -2.07351,-0.8631 -3.14715,-1.10488 -0.67249,-0.18695 -1.5198,-0.15839 -1.99937,-0.73143 -0.45466,-0.65744 -0.008,-1.59175 0.75681,-1.72226 1.33384,-0.25667 2.77848,-0.23647 3.99754,-0.90969 1.11344,-0.66152 1.21746,-2.09795 1.39037,-3.25179 0.14011,-0.69954 0.077,-1.53354 0.57584,-2.09386 0.24408,-0.20715 0.57318,-0.28944 0.88773,-0.24972 z m -13.03863,10.15265 c 0.99291,0.0898 1.50983,1.15541 1.49334,2.0579 0.39245,2.53864 0.63202,5.17793 2.06969,7.38311 1.32569,1.80986 3.65765,2.33816 5.73874,2.70909 1.24459,0.22877 2.52838,0.27699 3.75251,0.58683 1.14861,0.4726 1.26215,2.35162 0.1006,2.87836 -0.94498,0.43546 -2.02256,0.31488 -3.01472,0.57978 -1.99452,0.33963 -4.0624,0.6892 -5.71017,1.97941 -1.71076,1.44967 -2.14624,3.80258 -2.56621,5.86441 -0.26682,1.18804 -0.26399,2.44206 -0.66648,3.59338 -0.55365,1.1121 -2.43589,1.06367 -2.84835,-0.14233 -0.3931,-1.01633 -0.30706,-2.13902 -0.57369,-3.18921 -0.38366,-2.14963 -0.7977,-4.52561 -2.45536,-6.09083 -1.74274,-1.52075 -4.24094,-1.79061 -6.36122,-2.14059 -0.89567,-0.16165 -1.88555,-0.078 -2.69557,-0.5389 -0.98049,-0.68369 -0.81253,-2.46342 0.38211,-2.81183 0.97598,-0.32965 2.03147,-0.2451 3.03058,-0.48103 1.91368,-0.30576 3.92108,-0.64289 5.5102,-1.90644 1.74967,-1.50787 2.15563,-3.92329 2.57552,-6.07659 0.2585,-1.15473 0.19937,-2.39636 0.66042,-3.49356 0.32264,-0.53693 0.9603,-0.8342 1.57802,-0.76096 z m -6.2571,-18.76212 c -2.95169,-0.11779 -5.97122,0.20293 -8.96681,1.0083 -15.97627,4.29532 -25.498,20.8432 -21.21717,36.87341 4.28082,16.03021 20.77269,25.58417 36.74899,21.28887 15.97631,-4.29524 25.49799,-20.8432 21.21718,-36.87341 -0.1433,-0.53659 -0.30015,-1.06598 -0.47025,-1.5878 -0.80494,0.39532 -1.05032,0.44436 -2.20057,0.75251 -0.94321,0.25272 -1.12592,0.57414 -1.24325,1.14915 0,0.537 -0.14882,1.18553 -0.045,0.72151 l -0.21268,0.95049 c -0.14576,0.36011 -0.3819,0.88888 -0.62201,1.21614 2.39755,12.61242 -5.25355,25.07058 -17.81797,28.44852 -13.16302,3.53897 -26.62217,-4.25798 -30.1492,-17.46547 -3.52702,-13.20742 4.24341,-26.71218 17.40646,-30.2511 2.46802,-0.6635 4.94012,-0.92553 7.35787,-0.82902 4.70792,0.18784 8.51452,1.25088 12.33684,3.82121 1.21137,0.81463 2.04577,-0.49361 2.24187,-1.09719 l 0.0361,-0.11139 0.0429,-0.10998 c 0.39707,-0.9962 1.0612,-1.75326 1.85702,-2.26578 -0.68063,-0.49001 -1.3811,-0.95117 -2.09937,-1.38236 -4.25103,-2.55203 -9.1254,-4.05409 -14.20103,-4.25661 z" /></g><style
     type="text/css"
     id="style1941">
	.st0{fill:none;stroke:#000000;stroke-width:2;stroke-linecap:round;stroke-linejoin:round;stroke-miterlimit:10;}
</style><style
     type="text/css"
     id="style1941-0">
	.st0{fill:none;stroke:#000000;stroke-width:2;stroke-linecap:round;stroke-linejoin:round;stroke-miterlimit:10;}
</style><style
     type="text/css"
     id="style1941-7">
	.st0{fill:none;stroke:#000000;stroke-width:2;stroke-linecap:round;stroke-linejoin:round;stroke-miterlimit:10;}
</style><style
     type="text/css"
     id="style22485">
	.st0{fill:none;stroke:#6C3DB7;stroke-width:4;stroke-linecap:round;stroke-linejoin:round;stroke-miterlimit:10;}
	.st1{fill:none;stroke:#1F992A;stroke-width:4;stroke-linecap:round;stroke-linejoin:round;stroke-miterlimit:10;}
	.st2{fill:none;stroke:#6A83BA;stroke-width:4;stroke-linecap:round;stroke-linejoin:round;stroke-miterlimit:10;}
	.st3{fill:#8A8AFF;stroke:#8A8AFF;stroke-width:2;stroke-linecap:round;stroke-linejoin:round;stroke-miterlimit:10;}
	.st4{fill:#6C3DB7;stroke:#6C3DB7;stroke-width:2;stroke-linecap:round;stroke-linejoin:round;stroke-miterlimit:10;}
	.st5{fill:#A576FF;stroke:#A576FF;stroke-width:2;stroke-linecap:round;stroke-linejoin:round;stroke-miterlimit:10;}
	.st6{fill:#F2BB41;stroke:#F2BB41;stroke-width:2;stroke-linecap:round;stroke-linejoin:round;stroke-miterlimit:10;}
	.st7{fill:#E08838;stroke:#E08838;stroke-width:2;stroke-linecap:round;stroke-linejoin:round;stroke-miterlimit:10;}
	.st8{fill:#1F992A;stroke:#1F992A;stroke-width:2;stroke-linecap:round;stroke-linejoin:round;stroke-miterlimit:10;}
	.st9{fill:#5EC11E;stroke:#5EC11E;stroke-width:2;stroke-linecap:round;stroke-linejoin:round;stroke-miterlimit:10;}
	.st10{fill:#E3FAFF;stroke:#E3FAFF;stroke-width:2;stroke-linecap:round;stroke-linejoin:round;stroke-miterlimit:10;}
	.st11{fill:#FF5093;stroke:#FF5093;stroke-width:2;stroke-linecap:round;stroke-linejoin:round;stroke-miterlimit:10;}
	.st12{fill:#B7257F;stroke:#B7257F;stroke-width:2;stroke-linecap:round;stroke-linejoin:round;stroke-miterlimit:10;}
	.st13{fill:#5189E5;stroke:#5189E5;stroke-width:2;stroke-linecap:round;stroke-linejoin:round;stroke-miterlimit:10;}
	.st14{fill:#6EBAFF;stroke:#6EBAFF;stroke-width:2;stroke-linecap:round;stroke-linejoin:round;stroke-miterlimit:10;}
	.st15{fill:#EDD977;stroke:#EDD977;stroke-width:2;stroke-linecap:round;stroke-linejoin:round;stroke-miterlimit:10;}
	.st16{fill:#8C43FF;stroke:#8C43FF;stroke-width:2;stroke-linecap:round;stroke-linejoin:round;stroke-miterlimit:10;}
	.st17{fill:#5252BA;stroke:#5252BA;stroke-width:2;stroke-linecap:round;stroke-linejoin:round;stroke-miterlimit:10;}
	.st18{fill:none;stroke:#E3FAFF;stroke-width:4;stroke-linecap:round;stroke-linejoin:round;stroke-miterlimit:10;}
	.st19{fill:#354C75;stroke:#354C75;stroke-width:2;stroke-linecap:round;stroke-linejoin:round;stroke-miterlimit:10;}
</style><style
     type="text/css"
     id="style23106">
	.st0{fill:none;stroke:#000000;stroke-width:2;stroke-linecap:round;stroke-linejoin:round;stroke-miterlimit:10;}
	.st1{fill:none;stroke:#000000;stroke-width:2;stroke-linejoin:round;stroke-miterlimit:10;}
</style><style
     type="text/css"
     id="style1941-1">
	.st0{fill:none;stroke:#000000;stroke-width:2;stroke-linecap:round;stroke-linejoin:round;stroke-miterlimit:10;}
</style><style
     type="text/css"
     id="style1941-0-8">
	.st0{fill:none;stroke:#000000;stroke-width:2;stroke-linecap:round;stroke-linejoin:round;stroke-miterlimit:10;}
</style><style
     type="text/css"
     id="style1941-7-7">
	.st0{fill:none;stroke:#000000;stroke-width:2;stroke-linecap:round;stroke-linejoin:round;stroke-miterlimit:10;}
</style><style
     type="text/css"
     id="style22485-9">
	.st0{fill:none;stroke:#6C3DB7;stroke-width:4;stroke-linecap:round;stroke-linejoin:round;stroke-miterlimit:10;}
	.st1{fill:none;stroke:#1F992A;stroke-width:4;stroke-linecap:round;stroke-linejoin:round;stroke-miterlimit:10;}
	.st2{fill:none;stroke:#6A83BA;stroke-width:4;stroke-linecap:round;stroke-linejoin:round;stroke-miterlimit:10;}
	.st3{fill:#8A8AFF;stroke:#8A8AFF;stroke-width:2;stroke-linecap:round;stroke-linejoin:round;stroke-miterlimit:10;}
	.st4{fill:#6C3DB7;stroke:#6C3DB7;stroke-width:2;stroke-linecap:round;stroke-linejoin:round;stroke-miterlimit:10;}
	.st5{fill:#A576FF;stroke:#A576FF;stroke-width:2;stroke-linecap:round;stroke-linejoin:round;stroke-miterlimit:10;}
	.st6{fill:#F2BB41;stroke:#F2BB41;stroke-width:2;stroke-linecap:round;stroke-linejoin:round;stroke-miterlimit:10;}
	.st7{fill:#E08838;stroke:#E08838;stroke-width:2;stroke-linecap:round;stroke-linejoin:round;stroke-miterlimit:10;}
	.st8{fill:#1F992A;stroke:#1F992A;stroke-width:2;stroke-linecap:round;stroke-linejoin:round;stroke-miterlimit:10;}
	.st9{fill:#5EC11E;stroke:#5EC11E;stroke-width:2;stroke-linecap:round;stroke-linejoin:round;stroke-miterlimit:10;}
	.st10{fill:#E3FAFF;stroke:#E3FAFF;stroke-width:2;stroke-linecap:round;stroke-linejoin:round;stroke-miterlimit:10;}
	.st11{fill:#FF5093;stroke:#FF5093;stroke-width:2;stroke-linecap:round;stroke-linejoin:round;stroke-miterlimit:10;}
	.st12{fill:#B7257F;stroke:#B7257F;stroke-width:2;stroke-linecap:round;stroke-linejoin:round;stroke-miterlimit:10;}
	.st13{fill:#5189E5;stroke:#5189E5;stroke-width:2;stroke-linecap:round;stroke-linejoin:round;stroke-miterlimit:10;}
	.st14{fill:#6EBAFF;stroke:#6EBAFF;stroke-width:2;stroke-linecap:round;stroke-linejoin:round;stroke-miterlimit:10;}
	.st15{fill:#EDD977;stroke:#EDD977;stroke-width:2;stroke-linecap:round;stroke-linejoin:round;stroke-miterlimit:10;}
	.st16{fill:#8C43FF;stroke:#8C43FF;stroke-width:2;stroke-linecap:round;stroke-linejoin:round;stroke-miterlimit:10;}
	.st17{fill:#5252BA;stroke:#5252BA;stroke-width:2;stroke-linecap:round;stroke-linejoin:round;stroke-miterlimit:10;}
	.st18{fill:none;stroke:#E3FAFF;stroke-width:4;stroke-linecap:round;stroke-linejoin:round;stroke-miterlimit:10;}
	.st19{fill:#354C75;stroke:#354C75;stroke-width:2;stroke-linecap:round;stroke-linejoin:round;stroke-miterlimit:10;}
</style><style
     type="text/css"
     id="style23106-2">
	.st0{fill:none;stroke:#000000;stroke-width:2;stroke-linecap:round;stroke-linejoin:round;stroke-miterlimit:10;}
	.st1{fill:none;stroke:#000000;stroke-width:2;stroke-linejoin:round;stroke-miterlimit:10;}
</style><style
     type="text/css"
     id="style4736">
<![CDATA[
	.st0{fill:#D1D1D1;}
	.st1{fill:#454545;}
]]>
</style><style
     type="text/css"
     id="style1">
	.st0{fill:none;stroke:#000000;stroke-width:2;stroke-linecap:round;stroke-linejoin:round;stroke-miterlimit:10;}
</style><style
     type="text/css"
     id="style1-4">
	.linesandangles_een{fill:#111918;}
</style><style
     type="text/css"
     id="style1-2">
	.st0{fill:#000000;}
</style><style
     type="text/css"
     id="style1-5">
	.st0{fill:#000000;}
</style><style
     type="text/css"
     id="style1-1">
	.st0{fill:#000000;}
</style><style
     type="text/css"
     id="style1-0">
	.st0{fill:#F26E91;}
	.st1{fill:#00A779;}
	.st2{fill:#C4FFC9;}
	.st3{fill:#AB630A;}
	.st4{fill:#C98C40;}
	.st5{fill:#15AA78;}
	.st6{fill:#FF9000;}
	.st7{fill:#FCEECF;}
	.st8{fill:#FFE940;}
	.st9{fill:#F0E3CE;}
	.st10{fill:#FFB5C5;}
	.st11{fill:#91EDFF;}
	.st12{fill:#7191F0;}
	.st13{fill:#363636;}
	.st14{fill:#565656;}
	.st15{fill:#F3DF4D;}
	.st16{fill:#CD4A77;}
	.st17{fill:#577AE6;}
	.st18{fill:#F4D100;}
</style><style
     type="text/css"
     id="style1-56">
	.st0{fill:#000000;}
</style></svg>
